<svg xmlns="http://www.w3.org/2000/svg" width="500" height="500" viewBox="0 0 500 500">
<g>
<path d="M 239.87 356.89 C235.92,358.27 226.00,358.35 226.00,357.00 C226.00,356.45 224.46,356.00 222.57,356.00 C218.60,356.00 216.00,353.84 216.00,350.55 C216.00,345.02 214.65,341.76 211.60,339.90 C207.17,337.20 204.75,337.53 200.00,341.50 C197.70,343.42 194.83,345.00 193.63,345.00 C192.24,345.00 188.65,342.18 183.73,337.23 C174.98,328.42 174.42,326.59 178.66,320.39 C183.86,312.76 181.00,305.96 172.13,304.86 C164.12,303.86 164.00,303.63 164.00,289.12 C164.00,274.59 164.20,274.25 173.44,273.12 C177.96,272.56 178.66,272.14 180.19,269.00 C182.60,264.09 182.42,262.55 179.00,258.65 C174.03,252.99 174.73,250.61 183.99,241.69 C188.38,237.46 192.55,234.02 193.24,234.04 C193.93,234.06 196.98,235.41 200.00,237.04 C209.60,242.21 215.00,240.29 215.00,231.71 C215.00,223.59 219.11,221.00 231.97,221.00 C239.22,221.00 240.94,221.32 242.56,222.95 C246.09,226.50 246.51,227.46 246.50,232.00 C246.50,237.71 248.30,240.00 252.78,240.00 C255.35,240.00 257.27,239.08 260.13,236.50 C262.26,234.57 264.89,233.00 265.97,233.00 C267.84,233.00 279.41,243.89 282.70,248.74 C284.46,251.34 283.72,256.00 281.54,256.00 C279.35,256.00 278.70,257.79 278.39,264.66 C278.05,271.99 278.88,272.87 286.40,273.15 C293.55,273.42 294.25,274.80 294.39,288.86 C294.52,303.08 293.57,305.00 286.40,305.00 C283.10,305.00 281.75,305.51 280.56,307.22 C278.09,310.74 278.61,315.72 281.87,319.86 C287.07,326.47 287.00,326.74 277.14,336.86 C271.97,342.16 267.42,346.00 266.29,346.00 C265.23,346.00 262.46,344.37 260.13,342.38 C256.43,339.21 255.43,338.83 252.20,339.35 C247.46,340.11 245.00,343.13 245.00,348.18 C245.00,353.38 243.72,355.55 239.87,356.89 ZM 224.00 351.11 C226.94,351.97 237.03,351.13 238.57,349.90 C239.16,349.44 239.75,346.69 239.88,343.81 C240.17,337.48 240.93,336.46 247.65,333.39 C254.55,330.23 256.04,330.36 261.00,334.50 C263.30,336.42 265.57,338.00 266.03,338.00 C266.91,338.00 276.00,328.72 277.20,326.60 C277.58,325.92 276.91,324.28 275.69,322.93 C274.47,321.59 272.66,319.22 271.65,317.65 C269.85,314.84 269.86,314.70 272.46,308.65 C276.43,299.41 276.28,299.56 282.08,298.73 C285.03,298.30 287.86,297.54 288.37,297.03 C289.49,295.91 289.22,280.84 288.07,279.67 C287.61,279.22 285.28,278.59 282.87,278.29 C278.33,277.72 274.62,275.42 275.62,273.80 C275.94,273.29 275.37,272.26 274.35,271.51 C272.92,270.47 272.51,268.89 272.55,264.59 C272.60,259.94 273.05,258.55 275.30,256.21 C276.79,254.66 278.00,252.95 278.00,252.41 C278.00,251.88 275.31,248.78 272.02,245.52 L 266.05 239.61 L 263.77 241.65 C261.16,244.01 253.51,246.26 250.36,245.60 C249.19,245.36 247.16,244.60 245.86,243.92 C244.56,243.24 242.82,242.37 242.00,241.99 C240.92,241.48 240.47,239.51 240.38,234.97 C240.23,227.14 238.98,226.00 230.50,226.00 C222.54,226.00 221.08,227.17 220.11,234.30 C219.19,241.05 217.45,243.00 210.78,244.74 C205.65,246.08 202.90,245.49 197.97,241.98 C196.44,240.89 194.90,240.00 194.55,240.00 C193.21,240.00 183.72,249.61 182.87,251.83 C182.16,253.71 182.57,254.87 184.99,257.81 C186.65,259.81 188.00,262.34 188.00,263.41 C188.00,265.10 185.68,271.04 183.08,275.99 C182.65,276.81 180.37,277.86 178.01,278.32 C171.03,279.70 169.86,281.48 170.20,290.12 L 170.50 297.50 L 175.00 298.88 C181.84,300.98 182.30,301.32 185.24,306.59 C188.29,312.04 188.34,316.86 185.39,320.12 C184.45,321.16 184.05,322.00 184.50,322.00 C184.95,322.00 184.51,322.88 183.53,323.97 C181.81,325.87 181.90,326.09 186.49,331.22 C189.09,334.12 191.84,336.85 192.59,337.29 C193.98,338.09 199.35,335.87 200.50,334.01 C200.84,333.45 202.84,333.00 204.93,333.00 C214.42,333.00 218.39,335.44 219.49,341.95 C219.87,344.18 220.61,346.00 221.15,346.00 C221.69,346.00 221.98,346.99 221.81,348.19 C221.58,349.81 222.16,350.58 224.00,351.11 ZM 243.55 321.03 C238.33,323.27 231.09,323.95 223.34,322.94 C215.82,321.96 212.91,320.52 206.12,314.42 C194.68,304.13 191.72,287.33 198.87,273.22 C205.39,260.38 215.47,253.79 228.91,253.60 C238.46,253.47 244.39,255.18 250.53,259.84 C254.39,262.77 263.06,273.00 261.68,273.00 C261.49,273.00 261.88,275.62 262.54,278.83 C263.20,282.03 263.52,286.92 263.26,289.70 C262.98,292.56 263.21,295.01 263.78,295.36 C265.86,296.65 258.31,312.99 255.63,313.00 C255.15,313.00 253.15,314.41 251.18,316.14 C249.21,317.87 245.78,320.07 243.55,321.03 ZM 322.25 253.09 C317.98,253.59 310.65,253.32 309.03,252.60 C307.89,252.09 307.00,250.74 307.00,249.52 C307.00,246.30 302.75,244.26 299.58,245.96 C296.32,247.70 292.81,246.66 288.96,242.80 C285.97,239.82 285.80,239.26 286.30,234.36 C286.88,228.73 285.77,226.76 281.82,226.47 C279.03,226.26 278.03,224.26 278.02,218.83 C278.00,213.20 278.74,211.00 280.65,211.00 C281.44,211.00 283.26,209.91 284.69,208.59 C287.26,206.20 287.27,206.14 285.66,202.12 C283.64,197.07 284.31,195.23 289.84,190.62 C294.81,186.48 295.18,186.40 299.00,188.66 C302.78,190.89 308.00,189.01 308.00,185.41 C308.00,182.15 311.13,180.75 316.59,181.57 C321.80,182.35 324.04,184.14 323.31,186.94 C322.91,188.45 323.43,189.07 325.55,189.60 C327.13,190.00 329.08,189.80 330.14,189.15 C333.25,187.20 335.83,187.85 340.00,191.62 C344.22,195.43 344.89,197.96 342.85,202.42 C341.53,205.32 343.03,208.00 345.96,208.00 C346.90,208.00 348.87,209.35 350.33,210.99 C355.05,216.28 353.45,226.90 347.92,227.03 C344.25,227.12 340.43,232.91 343.00,234.50 C344.94,235.70 343.96,238.08 339.73,242.43 L 335.45 246.83 L 330.77 245.75 C325.18,244.47 323.00,245.70 323.00,250.12 C323.00,251.71 322.66,253.04 322.25,253.09 ZM 221.43 317.24 C231.00,320.66 241.98,317.77 249.65,309.81 C256.03,303.18 258.36,297.77 258.41,289.50 C258.48,279.49 256.14,273.54 249.74,267.36 C241.31,259.24 240.49,258.90 229.86,259.06 C221.01,259.20 220.22,259.39 215.31,262.62 C210.00,266.10 203.88,272.63 204.18,274.47 C204.27,275.04 203.76,277.52 203.04,280.00 C200.99,287.00 201.59,296.43 204.46,302.51 C207.40,308.72 214.26,314.68 221.43,317.24 ZM 310.42 247.48 C312.30,249.42 314.13,251.00 314.48,251.00 C316.35,251.00 319.00,248.70 319.00,247.08 C319.00,246.06 319.79,244.24 320.76,243.05 C322.88,240.43 330.23,239.12 332.45,240.96 C333.64,241.95 334.40,241.69 336.49,239.60 C338.94,237.15 338.99,236.89 337.54,234.08 C336.12,231.33 336.17,230.83 338.26,226.85 C339.71,224.08 341.38,222.38 343.00,222.00 C345.14,221.49 345.50,220.85 345.50,217.46 C345.50,213.89 345.23,213.47 342.57,213.01 C340.41,212.63 339.45,211.77 338.89,209.69 C338.48,208.14 337.63,206.26 337.01,205.51 C336.15,204.48 336.27,203.37 337.51,200.98 C339.03,198.03 339.03,197.69 337.42,195.91 C335.56,193.85 332.50,193.38 331.50,195.00 C329.60,198.07 320.68,194.40 319.12,189.90 C318.19,187.25 317.65,186.91 314.78,187.18 C312.31,187.42 311.42,188.03 311.19,189.65 C310.56,194.06 303.57,197.42 298.77,195.61 C297.25,195.03 296.00,194.21 296.00,193.78 C296.00,192.33 294.09,192.99 292.09,195.13 C290.39,196.96 290.18,198.17 290.68,203.52 C291.25,209.60 291.18,209.83 288.38,211.62 C284.70,213.96 284.04,214.93 284.01,218.00 C283.99,219.63 285.12,221.44 287.24,223.18 C290.29,225.69 290.51,226.28 290.63,232.52 C290.79,241.36 292.19,242.90 298.54,241.20 C303.11,239.98 307.00,240.81 307.00,243.02 C307.00,243.54 308.54,245.55 310.42,247.48 ZM 252.69 208.83 C250.70,210.69 249.21,211.00 242.24,211.00 C237.77,211.00 233.84,210.56 233.51,210.02 C233.18,209.47 232.25,206.85 231.46,204.18 C229.43,197.35 223.37,194.72 219.50,199.00 C218.50,200.10 216.96,201.00 216.08,201.00 C212.79,201.00 202.77,192.63 199.65,187.28 C199.07,186.28 199.82,184.56 202.05,181.78 C205.17,177.90 205.24,177.63 203.73,175.12 C202.87,173.68 201.00,172.16 199.58,171.75 C198.16,171.34 195.79,170.66 194.32,170.25 C192.52,169.75 191.36,168.52 190.76,166.50 C189.60,162.52 190.64,147.84 192.15,146.91 C192.80,146.51 195.28,145.88 197.67,145.53 C201.15,145.00 202.32,144.28 203.55,141.90 C205.03,139.04 204.98,138.79 202.04,135.24 C200.37,133.21 199.00,130.58 199.00,129.39 C199.00,126.81 212.16,113.99 214.77,114.03 C215.72,114.04 218.07,115.36 220.00,116.95 L 223.49 119.85 L 227.28 117.72 C229.68,116.37 231.25,114.66 231.57,113.05 C231.86,111.65 232.66,109.38 233.36,108.00 C234.54,105.66 235.08,105.51 241.58,105.68 C250.83,105.93 253.56,107.05 254.34,110.94 C254.68,112.65 255.43,114.59 256.00,115.27 C256.57,115.95 257.93,117.59 259.03,118.91 L 261.02 121.33 L 265.42 118.16 C267.84,116.42 270.70,115.00 271.76,115.00 C272.83,115.00 276.26,117.69 279.39,120.97 C284.59,126.43 285.06,127.29 284.84,131.01 C284.71,133.25 284.02,135.57 283.30,136.16 C281.37,137.77 281.72,141.44 284.00,143.50 C286.39,145.66 286.61,148.55 284.44,149.38 C282.68,150.06 278.00,145.90 278.00,143.65 C278.00,142.86 277.33,141.95 276.50,141.64 C274.21,140.76 274.71,136.50 277.50,133.18 C278.88,131.55 280.00,129.54 280.00,128.72 C280.00,127.34 272.75,120.00 271.39,120.00 C271.06,120.00 269.50,121.09 267.92,122.42 C264.61,125.20 261.11,125.08 254.31,121.96 C250.46,120.20 250.09,119.70 249.81,115.84 C249.54,112.15 249.14,111.54 246.60,110.86 C245.01,110.44 242.08,110.43 240.10,110.84 C236.97,111.48 236.46,111.99 236.19,114.79 C236.01,116.56 235.45,118.00 234.94,118.00 C234.42,118.00 234.00,118.66 234.00,119.47 C234.00,122.68 222.75,125.86 219.36,123.61 C216.37,121.62 213.46,122.27 209.58,125.80 L 205.95 129.10 L 209.06 133.43 C212.12,137.70 212.15,137.82 210.51,140.98 C209.60,142.75 208.67,145.10 208.46,146.20 C207.89,149.19 206.03,151.00 203.53,151.00 C202.30,151.00 199.88,151.49 198.15,152.10 C195.15,153.14 195.00,153.45 195.00,158.48 C195.00,164.74 195.86,165.65 202.62,166.54 C207.64,167.21 207.70,167.26 209.53,172.36 C211.89,178.91 211.72,180.63 208.40,184.10 L 205.70 186.92 L 209.10 190.83 C213.15,195.48 215.94,196.32 219.14,193.86 C223.00,190.89 227.27,191.50 232.34,195.75 C235.46,198.36 236.91,200.41 237.15,202.50 C237.49,205.40 237.68,205.51 243.26,205.80 C247.77,206.04 249.13,205.76 249.51,204.55 C249.78,203.70 250.31,202.21 250.69,201.25 C251.43,199.39 251.70,198.26 251.88,196.26 C252.04,194.60 258.48,192.00 262.47,192.00 C264.42,192.00 266.40,192.79 267.50,194.00 C268.50,195.10 269.86,196.00 270.54,196.00 C272.04,196.00 280.00,187.95 280.00,186.43 C280.00,185.84 278.88,184.29 277.50,183.00 C274.17,179.88 274.35,177.20 278.25,171.39 C280.75,167.68 282.30,166.40 284.95,165.87 C289.80,164.89 291.25,162.53 290.71,156.54 C290.46,153.82 289.75,151.42 289.13,151.21 C288.51,151.00 288.00,150.23 288.00,149.48 C288.00,147.99 291.46,146.55 292.90,147.44 C293.41,147.75 294.14,151.85 294.53,156.54 C295.34,166.29 294.40,168.33 288.57,169.42 C282.17,170.62 280.30,176.31 284.46,181.95 C288.05,186.81 287.72,189.32 282.89,193.74 C280.62,195.81 277.62,198.74 276.22,200.25 C273.07,203.64 271.47,203.69 266.79,200.50 C261.69,197.04 257.00,197.33 257.00,201.11 C257.00,202.15 256.55,203.00 256.00,203.00 C255.45,203.00 255.00,203.82 255.00,204.83 C255.00,205.83 253.96,207.63 252.69,208.83 ZM 243.64 183.00 C241.73,183.00 240.02,183.38 239.83,183.85 C239.65,184.32 239.05,184.58 238.50,184.44 C237.95,184.29 236.34,183.92 234.93,183.61 C230.77,182.70 223.41,176.43 220.60,171.39 C216.36,163.81 216.26,157.99 220.21,148.50 C223.42,140.77 223.74,140.39 229.52,137.31 C240.03,131.71 240.11,131.69 244.76,132.89 C247.11,133.50 250.30,134.00 251.85,134.00 C255.95,134.00 263.65,140.41 266.81,146.45 C269.00,150.65 269.42,152.71 269.32,158.71 C269.20,165.22 268.92,166.17 266.42,168.49 C264.90,169.90 263.29,170.69 262.86,170.26 C262.42,169.82 262.56,166.44 263.18,162.75 C264.13,157.02 264.04,155.40 262.58,151.58 C260.35,145.73 255.83,141.43 249.77,139.42 C228.68,132.42 213.65,158.60 230.21,173.50 C234.76,177.59 238.28,179.00 243.93,179.00 C246.74,179.00 256.24,174.77 259.27,172.17 C260.63,171.00 261.32,170.92 262.23,171.83 C263.13,172.73 262.51,173.91 259.59,176.91 C255.63,180.97 250.30,183.00 243.64,183.00 ZM 324.17 234.39 C317.74,238.43 311.34,238.38 308.70,234.25 C308.26,233.56 306.87,233.00 305.61,233.00 C302.33,233.00 299.44,229.55 300.60,227.03 C301.58,224.88 302.35,225.12 308.57,229.50 C310.45,230.82 312.90,231.47 315.79,231.40 C319.51,231.32 320.77,230.70 324.24,227.23 C327.84,223.63 328.38,222.48 328.79,217.52 C329.25,211.92 329.24,211.88 324.62,207.46 C320.07,203.10 319.88,203.03 313.42,203.12 C308.68,203.19 306.70,203.62 306.30,204.67 C305.99,205.46 305.10,205.87 304.32,205.57 C303.54,205.27 303.16,205.46 303.49,205.98 C303.82,206.51 303.36,208.04 302.48,209.39 C301.35,211.11 301.08,212.89 301.55,215.41 C302.51,220.55 301.42,224.00 298.84,224.00 C296.81,224.00 296.74,223.66 297.31,216.90 C297.63,213.00 298.63,208.69 299.51,207.34 C301.68,204.03 309.78,199.00 312.95,199.00 C317.03,198.99 324.89,202.21 327.49,204.96 C335.65,213.59 336.15,214.94 333.80,221.93 C332.11,226.96 328.46,231.69 324.17,234.39 Z" fill="rgb(225,146,83)"/>
<path d="M 290.96 304.37 C294.01,303.06 294.49,299.23 294.39,288.86 C294.25,274.80 293.55,273.42 286.40,273.15 C278.88,272.87 278.05,271.99 278.39,264.66 C278.70,257.79 279.35,256.00 281.54,256.00 C283.72,256.00 284.46,251.34 282.70,248.74 C279.41,243.89 267.84,233.00 265.97,233.00 C264.89,233.00 262.26,234.57 260.13,236.50 C257.27,239.08 255.35,240.00 252.78,240.00 C248.30,240.00 246.50,237.71 246.50,232.00 C246.51,227.46 246.09,226.50 242.56,222.95 C240.94,221.32 239.22,221.00 231.97,221.00 C219.11,221.00 215.00,223.59 215.00,231.71 C215.00,238.01 212.09,240.72 206.74,239.66 L 209.93 238.04 C213.79,236.07 214.00,235.72 214.00,231.43 C214.00,226.43 216.04,221.58 218.54,220.62 C219.44,220.28 225.29,220.00 231.56,220.00 C242.73,220.00 242.99,220.05 244.66,222.60 C245.60,224.04 246.46,227.38 246.58,230.04 C246.86,236.15 247.22,236.69 252.08,238.14 C255.98,239.31 256.16,239.25 259.83,235.67 C265.62,230.02 267.51,230.52 277.51,240.32 C287.48,250.08 288.02,252.02 282.50,258.13 C278.61,262.44 278.38,263.57 280.39,268.38 C281.68,271.48 282.16,271.74 287.64,272.30 C296.25,273.19 297.00,274.48 297.00,288.50 C297.00,300.48 296.38,303.35 290.96,304.37 ZM 322.25 253.09 C322.66,253.04 323.00,251.71 323.00,250.12 C323.00,245.70 325.18,244.47 330.77,245.75 L 335.45 246.83 L 339.73 242.43 C343.96,238.08 344.94,235.70 343.00,234.50 C340.68,233.07 343.57,228.21 346.85,227.21 C346.16,227.49 345.41,228.01 344.91,228.60 C343.80,229.95 343.86,230.68 345.29,233.18 C346.23,234.82 347.00,236.74 347.00,237.44 C347.00,238.14 344.50,241.07 341.45,243.96 C336.97,248.19 335.48,249.07 333.70,248.49 C332.49,248.09 330.15,247.70 328.50,247.63 C325.93,247.52 325.45,247.90 325.18,250.24 C325.01,251.75 323.90,253.66 322.71,254.49 C321.44,255.38 318.36,256.00 315.23,256.00 C310.91,256.00 309.45,255.54 307.45,253.55 C306.10,252.20 305.00,250.22 305.00,249.15 C305.00,246.52 302.30,245.68 299.70,247.50 C296.28,249.90 294.24,249.30 288.96,244.36 C283.78,239.52 282.96,236.96 285.49,233.61 C287.28,231.25 285.82,228.00 282.96,228.00 C279.14,228.00 277.00,224.49 277.00,218.22 C277.00,211.60 278.91,208.00 282.43,208.00 C285.89,208.00 287.06,206.20 285.89,202.70 C287.26,206.15 287.13,206.32 284.69,208.59 C283.26,209.91 281.44,211.00 280.65,211.00 C278.74,211.00 278.00,213.20 278.02,218.83 C278.03,224.26 279.03,226.26 281.82,226.47 C285.77,226.76 286.88,228.73 286.30,234.36 C285.80,239.26 285.97,239.82 288.96,242.80 C292.81,246.66 296.32,247.70 299.58,245.96 C302.75,244.26 307.00,246.30 307.00,249.52 C307.00,250.74 307.89,252.09 309.03,252.60 C310.65,253.32 317.98,253.59 322.25,253.09 ZM 310.02 230.28 C310.29,230.42 310.57,230.55 310.84,230.67 C310.01,230.37 309.26,229.98 308.57,229.50 C302.35,225.12 301.58,224.88 300.60,227.03 C299.44,229.55 302.33,233.00 305.61,233.00 C306.87,233.00 308.26,233.56 308.70,234.25 C310.22,236.63 313.00,237.66 316.32,237.32 C314.11,237.58 311.94,237.35 309.89,236.62 C300.66,233.33 296.00,226.90 296.00,217.49 C296.00,211.09 297.44,207.80 302.16,203.38 C309.97,196.09 322.10,196.22 329.20,203.67 C332.13,206.74 334.82,212.42 334.99,215.81 C334.72,212.93 332.62,210.38 327.49,204.96 C324.89,202.21 317.03,198.99 312.95,199.00 C309.78,199.00 301.68,204.03 299.51,207.34 C298.63,208.69 297.63,213.00 297.31,216.90 C296.74,223.66 296.81,224.00 298.84,224.00 C301.42,224.00 302.51,220.55 301.55,215.41 C301.08,212.89 301.35,211.11 302.48,209.39 C303.36,208.04 303.82,206.51 303.49,205.98 C303.16,205.46 303.54,205.27 304.32,205.57 C305.10,205.87 305.99,205.46 306.30,204.67 C306.70,203.62 308.68,203.19 313.42,203.12 C319.88,203.03 320.07,203.10 324.62,207.46 C329.24,211.88 329.25,211.92 328.79,217.52 C328.77,217.71 328.76,217.89 328.74,218.06 C328.74,216.63 328.45,215.13 327.89,213.56 C326.02,208.39 322.87,205.85 317.58,205.26 C312.06,204.63 307.82,206.24 304.48,210.21 C299.47,216.16 302.27,226.31 310.02,230.28 ZM 282.25 175.74 C282.38,172.63 284.61,170.16 288.57,169.42 C294.40,168.33 295.34,166.29 294.53,156.54 C294.14,151.85 293.41,147.75 292.90,147.44 C291.46,146.55 288.00,147.99 288.00,149.48 C288.00,150.23 288.51,151.00 289.13,151.21 C289.75,151.42 290.46,153.82 290.71,156.54 C291.25,162.53 289.80,164.89 284.95,165.87 C282.30,166.40 280.75,167.68 278.25,171.39 C277.03,173.20 276.18,174.71 275.68,176.01 C276.04,174.81 276.58,173.33 277.30,171.46 C279.58,165.59 279.67,165.49 284.05,165.00 L 288.48 164.50 L 289.22 159.50 C290.19,152.96 289.73,152.00 285.64,152.00 C281.37,152.00 278.72,149.72 276.63,144.23 C276.11,142.88 275.73,141.76 275.48,140.77 C275.71,141.17 276.05,141.47 276.50,141.64 C277.33,141.95 278.00,142.86 278.00,143.65 C278.00,145.90 282.68,150.06 284.44,149.38 C286.61,148.55 286.39,145.66 284.00,143.50 C283.96,143.47 283.93,143.43 283.89,143.40 C285.20,144.36 287.24,144.99 289.98,145.18 C296.07,145.62 297.16,147.85 296.79,159.22 C296.46,169.18 295.54,170.73 289.43,171.67 C285.76,172.23 283.06,173.81 282.25,175.74 ZM 252.69 208.83 C253.96,207.63 255.00,205.83 255.00,204.83 C255.00,203.82 255.45,203.00 256.00,203.00 C256.26,203.00 256.50,202.81 256.68,202.49 C256.56,203.03 256.46,203.62 256.37,204.25 C256.00,207.07 254.89,210.11 253.85,211.15 C252.33,212.67 250.55,212.98 243.75,212.88 C239.21,212.82 234.78,212.57 233.89,212.34 C231.79,211.78 230.00,207.76 230.00,203.61 C230.00,201.06 229.43,200.06 227.45,199.16 C224.00,197.59 223.98,197.59 220.00,201.00 C218.07,202.65 215.89,204.00 215.14,204.00 C212.86,204.00 199.00,189.88 199.00,187.56 C199.00,187.03 199.30,186.18 199.79,185.21 C199.40,186.11 199.36,186.78 199.65,187.28 C202.77,192.63 212.79,201.00 216.08,201.00 C216.96,201.00 218.50,200.10 219.50,199.00 C223.37,194.72 229.43,197.35 231.46,204.18 C232.25,206.85 233.18,209.47 233.51,210.02 C233.84,210.56 237.77,211.00 242.24,211.00 C249.21,211.00 250.70,210.69 252.69,208.83 ZM 353.00 217.19 C352.71,214.93 351.84,212.69 350.33,210.99 C348.87,209.35 346.90,208.00 345.96,208.00 C343.03,208.00 341.53,205.32 342.85,202.42 C344.89,197.96 344.22,195.43 340.00,191.62 C335.83,187.85 333.25,187.20 330.14,189.15 C329.08,189.80 327.13,190.00 325.55,189.60 C323.43,189.07 322.91,188.45 323.31,186.94 C324.04,184.14 321.80,182.35 316.59,181.57 C311.13,180.75 308.00,182.15 308.00,185.41 C308.00,187.94 305.42,189.62 302.58,189.62 C302.85,189.50 303.13,189.31 303.43,189.05 C304.30,188.34 305.00,187.00 305.00,186.07 C305.00,182.03 307.36,180.73 314.59,180.78 C318.39,180.80 322.05,180.86 322.71,180.91 C323.38,180.96 324.41,182.80 325.00,185.00 C326.17,189.34 328.03,190.05 331.44,187.47 C332.51,186.66 334.00,186.00 334.75,186.00 C336.63,186.00 347.00,195.94 347.00,197.74 C347.00,198.54 346.25,200.47 345.32,202.03 C343.93,204.38 343.87,205.14 344.95,206.43 C345.66,207.30 347.22,208.00 348.42,208.00 C352.00,208.00 353.00,209.97 353.00,217.05 C353.00,217.09 353.00,217.14 353.00,217.19 ZM 282.16 140.23 C281.84,138.66 282.20,137.08 283.30,136.16 C284.02,135.57 284.71,133.25 284.84,131.01 C285.06,127.29 284.59,126.43 279.39,120.97 C276.26,117.69 272.83,115.00 271.76,115.00 C270.70,115.00 267.84,116.42 265.42,118.16 L 261.02 121.33 L 259.03 118.91 C257.93,117.59 256.57,115.95 256.00,115.27 C255.43,114.59 254.68,112.65 254.34,110.94 C253.56,107.05 250.83,105.93 241.58,105.68 C235.08,105.51 234.54,105.66 233.36,108.00 C232.66,109.38 231.86,111.65 231.57,113.05 C231.25,114.66 229.68,116.37 227.28,117.72 L 226.44 118.20 L 226.83 117.96 C229.36,116.42 230.00,115.36 230.00,112.74 C230.00,110.93 230.70,108.44 231.56,107.22 C233.00,105.17 233.90,105.00 243.50,105.00 C250.56,105.00 254.12,105.39 254.63,106.21 C255.05,106.88 255.89,109.67 256.50,112.40 C257.41,116.44 258.13,117.54 260.32,118.27 C262.53,119.01 263.56,118.71 266.08,116.58 C271.08,112.38 273.64,113.08 281.28,120.78 C284.97,124.50 288.00,128.31 288.00,129.24 C288.00,130.17 286.65,132.47 285.00,134.35 C283.05,136.57 282.12,138.57 282.16,140.23 ZM 181.01 315.26 C180.64,316.88 179.87,318.61 178.66,320.39 C174.42,326.59 174.98,328.42 183.73,337.23 C188.65,342.18 192.24,345.00 193.63,345.00 C194.83,345.00 197.70,343.42 200.00,341.50 C204.75,337.53 207.17,337.20 211.60,339.90 C214.65,341.76 216.00,345.02 216.00,350.55 C216.00,353.84 218.60,356.00 222.57,356.00 C224.46,356.00 226.00,356.45 226.00,357.00 C226.00,357.46 227.17,357.76 228.87,357.89 C224.13,357.99 219.46,357.83 218.23,357.33 C216.05,356.45 214.00,351.29 214.00,346.66 C214.00,342.41 213.83,342.15 209.98,340.61 C207.77,339.72 205.77,339.00 205.54,339.00 C205.31,339.00 203.04,340.80 200.50,343.00 C197.96,345.20 195.11,347.00 194.17,347.00 C191.50,347.00 174.00,328.91 174.00,326.16 C174.00,324.89 175.83,321.69 178.06,319.04 C179.55,317.28 180.49,316.15 181.01,315.26 ZM 224.00 351.11 C222.16,350.58 221.58,349.81 221.81,348.19 C221.98,346.99 221.69,346.00 221.15,346.00 C220.61,346.00 219.87,344.18 219.49,341.95 C218.39,335.44 214.42,333.00 204.93,333.00 C202.84,333.00 200.84,333.45 200.50,334.01 C199.83,335.08 197.76,336.28 195.86,336.94 C196.85,336.21 198.16,335.16 199.50,334.00 C202.04,331.80 204.66,330.01 205.31,330.02 C205.96,330.03 208.52,331.03 211.00,332.23 C213.48,333.43 216.62,334.66 218.00,334.96 C220.23,335.45 220.62,336.27 221.63,342.51 C222.25,346.35 222.82,349.63 222.88,349.79 C222.95,349.95 226.49,349.95 230.75,349.79 L 238.50 349.50 L 239.00 342.54 L 239.50 335.58 L 243.01 334.86 C244.26,334.60 245.92,334.08 247.39,333.51 C240.91,336.49 240.16,337.57 239.88,343.81 C239.75,346.69 239.16,349.44 238.57,349.90 C237.03,351.13 226.94,351.97 224.00,351.11 ZM 310.42 247.48 C308.54,245.55 307.00,243.54 307.00,243.02 C307.00,240.81 303.11,239.98 298.54,241.20 C292.19,242.90 290.79,241.36 290.63,232.52 C290.51,226.28 290.29,225.69 287.24,223.18 C286.49,222.56 285.87,221.94 285.37,221.32 C285.85,221.65 286.53,221.84 287.49,222.00 C289.67,222.38 290.96,223.47 292.20,226.01 C294.18,230.07 294.39,232.40 293.00,234.99 C292.46,236.02 292.27,237.55 292.60,238.39 C293.38,240.42 296.92,241.48 298.30,240.10 C299.72,238.68 302.54,238.70 306.60,240.17 C309.63,241.27 311.00,242.95 312.38,247.25 C312.72,248.31 313.94,249.00 315.46,249.00 C317.22,249.00 318.14,248.32 319.15,246.16 C319.05,246.50 319.00,246.81 319.00,247.08 C319.00,248.70 316.35,251.00 314.48,251.00 C314.13,251.00 312.30,249.42 310.42,247.48 ZM 190.27 243.37 C192.27,241.46 194.03,240.00 194.55,240.00 C194.90,240.00 196.44,240.89 197.97,241.98 C202.90,245.49 205.65,246.08 210.78,244.74 C217.45,243.00 219.19,241.05 220.11,234.30 C221.08,227.17 222.54,226.00 230.50,226.00 C235.20,226.00 237.68,226.35 238.98,228.00 L 230.97 228.00 C230.57,228.00 230.19,228.00 229.83,228.00 C226.09,227.99 224.24,227.99 223.21,228.91 C222.11,229.90 221.98,231.98 221.49,236.31 C220.92,241.40 220.51,242.24 218.17,243.16 C216.70,243.73 213.58,245.06 211.22,246.10 C205.40,248.68 204.18,248.52 199.11,244.49 C196.69,242.57 194.20,241.00 193.57,241.00 C193.16,241.00 191.87,241.95 190.27,243.37 ZM 243.64 183.00 C250.30,183.00 255.63,180.97 259.59,176.91 C262.51,173.91 263.13,172.73 262.23,171.83 C261.32,170.92 260.63,171.00 259.27,172.17 C257.78,173.44 254.74,175.11 251.69,176.48 C253.99,175.24 256.14,173.49 258.18,171.23 C260.70,168.43 262.39,165.50 263.22,162.49 C263.21,162.58 263.19,162.66 263.18,162.75 C262.56,166.44 262.42,169.82 262.86,170.26 C263.29,170.69 264.90,169.90 266.42,168.49 C267.49,167.50 268.15,166.76 268.57,165.73 C266.83,173.83 261.98,179.39 253.67,182.94 C249.44,184.74 241.63,185.55 238.50,184.51 C237.95,184.33 236.34,183.92 234.93,183.61 C236.34,183.92 237.95,184.29 238.50,184.44 C239.05,184.58 239.65,184.32 239.83,183.85 C240.02,183.38 241.73,183.00 243.64,183.00 ZM 243.55 321.03 C245.78,320.07 249.21,317.87 251.18,316.14 C253.15,314.41 255.15,313.00 255.63,313.00 C255.79,313.00 255.97,312.94 256.17,312.83 C251.16,319.11 245.77,322.44 237.50,324.64 C231.30,326.30 228.95,326.26 222.02,324.40 C209.36,320.99 200.67,311.81 197.04,300.93 C198.87,306.00 201.92,310.65 206.12,314.42 C212.91,320.52 215.82,321.96 223.34,322.94 C231.09,323.95 238.33,323.27 243.55,321.03 ZM 204.81 239.16 C203.35,238.68 201.74,237.98 200.00,237.04 C196.98,235.41 193.93,234.06 193.24,234.04 C192.55,234.02 188.38,237.46 183.99,241.69 C174.73,250.61 174.03,252.99 179.00,258.65 C181.25,261.22 182.10,262.76 181.72,264.93 C181.81,263.35 180.72,262.09 178.00,259.00 C175.78,256.48 174.02,253.45 174.02,252.12 C174.00,250.47 176.65,247.03 182.68,240.87 C193.06,230.27 194.71,229.84 201.45,236.06 ZM 250.91 268.54 C250.88,268.51 250.85,268.48 250.81,268.45 C244.37,262.63 238.75,260.51 230.00,260.62 C221.45,260.72 217.43,262.19 211.36,267.41 C204.70,273.14 201.75,280.15 201.84,290.16 C201.75,286.63 202.14,283.08 203.04,280.00 C203.76,277.52 204.27,275.04 204.18,274.47 C203.88,272.63 210.00,266.10 215.31,262.62 C220.22,259.39 221.01,259.20 229.86,259.06 C240.49,258.90 241.31,259.24 249.74,267.36 C250.15,267.76 250.54,268.15 250.91,268.54 ZM 171.43 281.39 C172.57,279.77 174.60,279.00 178.01,278.32 C180.37,277.86 182.65,276.81 183.08,275.99 C185.68,271.04 188.00,265.10 188.00,263.41 C188.00,262.34 186.65,259.81 184.99,257.81 C182.57,254.87 182.16,253.71 182.87,251.83 C182.99,251.54 183.25,251.11 183.62,250.60 C183.52,250.87 183.45,251.13 183.43,251.39 C183.27,253.05 184.72,254.86 187.90,258.82 C188.02,258.97 188.14,259.13 188.27,259.28 L 191.04 262.74 L 188.02 269.12 C186.36,272.63 185.00,276.01 185.00,276.63 C185.00,278.73 182.27,280.04 176.37,280.77 ZM 279.88 129.32 L 278.30 127.18 C277.20,125.71 275.16,123.85 273.76,123.05 C271.37,121.70 270.99,121.80 267.57,124.80 C265.57,126.56 263.61,127.96 263.22,127.92 C262.82,127.87 259.80,126.40 256.50,124.65 C250.83,121.64 250.45,121.20 249.58,116.73 L 248.66 112.00 L 237.08 112.00 C237.63,111.45 238.54,111.16 240.10,110.84 C242.08,110.43 245.01,110.44 246.60,110.86 C249.14,111.54 249.54,112.15 249.81,115.84 C250.09,119.70 250.46,120.20 254.31,121.96 C261.11,125.08 264.61,125.20 267.92,122.42 C269.50,121.09 271.06,120.00 271.39,120.00 C272.75,120.00 280.00,127.34 280.00,128.72 C280.00,128.88 279.96,129.08 279.88,129.32 ZM 183.12 324.44 C183.24,324.29 183.38,324.13 183.53,323.97 C184.51,322.88 184.95,322.00 184.50,322.00 C184.05,322.00 184.45,321.16 185.39,320.12 C188.34,316.86 188.29,312.04 185.24,306.59 C182.30,301.32 181.84,300.98 175.00,298.88 L 170.50 297.50 L 176.90 298.00 C181.22,298.34 183.53,298.99 184.01,300.00 C188.02,308.38 190.00,313.41 190.00,315.23 C190.00,316.46 188.16,319.30 185.83,321.67 ZM 284.25 215.79 C284.67,214.26 285.76,213.29 288.38,211.62 C291.18,209.83 291.25,209.60 290.68,203.52 C290.18,198.17 290.39,196.96 292.09,195.13 C294.09,192.99 296.00,192.33 296.00,193.78 C296.00,194.21 297.25,195.03 298.77,195.61 C300.83,196.38 303.29,196.21 305.48,195.41 C303.32,196.22 300.90,196.41 298.92,195.66 C293.93,193.78 290.63,197.08 293.03,201.56 C295.57,206.30 290.83,215.00 285.71,215.00 C284.91,215.00 284.46,215.19 284.25,215.79 ZM 237.00 112.08 L 237.00 116.38 C237.00,121.35 236.63,121.75 228.79,125.28 L 223.09 127.85 L 219.41 124.92 C218.14,123.92 216.81,123.02 215.85,122.50 C217.05,122.46 218.20,122.84 219.36,123.61 C222.75,125.86 234.00,122.68 234.00,119.47 C234.00,118.66 234.42,118.00 234.94,118.00 C235.45,118.00 236.01,116.56 236.19,114.79 C236.32,113.45 236.50,112.64 237.00,112.08 ZM 277.98 252.30 C277.99,252.35 278.00,252.38 278.00,252.41 C278.00,252.95 276.79,254.66 275.30,256.21 C273.05,258.55 272.60,259.94 272.55,264.59 C272.51,268.89 272.92,270.47 274.35,271.51 C275.37,272.26 275.94,273.29 275.62,273.80 C274.62,275.42 278.33,277.72 282.87,278.29 C285.28,278.59 287.61,279.22 288.07,279.67 C288.13,279.74 288.19,279.85 288.25,280.00 L 284.67 279.99 C277.57,279.96 276.23,279.20 274.45,274.14 C273.55,271.59 272.18,268.31 271.41,266.85 C269.26,262.80 269.65,261.34 274.18,256.42 ZM 198.18 152.09 C197.15,153.07 197.04,154.91 197.21,158.38 L 197.50 164.50 L 202.15 164.80 L 206.79 165.10 L 208.46 169.56 C207.41,167.20 206.48,167.06 202.62,166.54 C195.86,165.65 195.00,164.74 195.00,158.48 C195.00,153.45 195.15,153.14 198.15,152.10 ZM 211.93 193.61 C214.49,195.48 216.59,195.07 219.00,192.50 C221.65,189.68 223.66,189.38 226.53,191.37 C227.61,192.13 229.97,193.06 231.76,193.45 C235.52,194.27 237.00,196.47 237.00,201.27 C237.00,201.42 237.00,201.57 237.01,201.71 C236.52,199.89 235.06,198.04 232.34,195.75 C227.27,191.50 223.00,190.89 219.14,193.86 C216.74,195.71 214.57,195.70 211.93,193.61 ZM 261.12 305.45 C263.28,300.98 264.89,296.05 263.78,295.36 C263.21,295.01 262.98,292.56 263.26,289.70 C263.52,286.92 263.20,282.03 262.54,278.83 C261.88,275.62 261.49,273.00 261.68,273.00 C261.75,273.00 261.80,272.97 261.82,272.91 C264.38,277.42 264.97,281.21 264.98,287.88 C265.00,295.50 264.07,300.13 261.12,305.45 ZM 249.62 204.23 L 250.00 200.04 C250.47,194.87 250.67,194.54 253.61,193.94 C255.32,193.59 257.78,192.57 259.08,191.65 C262.30,189.40 264.03,189.57 268.00,192.50 C269.86,193.88 271.72,195.00 272.13,195.00 C272.20,195.00 272.29,194.97 272.40,194.92 C271.56,195.58 270.88,196.00 270.54,196.00 C269.86,196.00 268.50,195.10 267.50,194.00 C266.40,192.79 264.42,192.00 262.47,192.00 C258.48,192.00 252.04,194.60 251.88,196.26 C251.70,198.26 251.43,199.39 250.69,201.25 C250.36,202.10 249.90,203.36 249.62,204.23 ZM 238.57 132.80 C236.71,133.48 234.11,134.86 229.52,137.31 C223.74,140.39 223.42,140.77 220.21,148.50 C218.35,152.96 217.39,156.60 217.33,160.01 C217.32,159.83 217.30,159.65 217.29,159.47 C216.64,151.03 218.70,145.55 224.68,139.86 C229.57,135.21 232.76,133.40 238.57,132.80 ZM 248.06 244.89 C248.91,245.21 249.75,245.48 250.36,245.60 C253.51,246.26 261.16,244.01 263.77,241.65 L 265.19 240.38 L 261.73 243.78 C259.36,246.10 256.54,247.99 255.46,247.99 C254.38,247.98 251.54,246.86 249.15,245.49 C248.79,245.28 248.42,245.08 248.06,244.89 ZM 239.00 228.02 C240.03,229.35 240.31,231.50 240.38,234.97 C240.47,239.51 240.92,241.48 242.00,241.99 C242.60,242.27 243.70,242.81 244.75,243.35 C244.16,243.13 243.70,243.00 243.45,243.00 C240.96,243.00 239.00,238.71 239.00,233.28 ZM 267.79 148.47 C267.51,147.84 267.18,147.18 266.81,146.45 C263.65,140.41 255.95,134.00 251.85,134.00 C250.30,134.00 247.11,133.50 244.76,132.89 C244.28,132.77 243.84,132.65 243.43,132.56 C243.64,132.56 243.86,132.55 244.08,132.55 L 252.65 132.50 L 258.40 136.93 C263.21,140.63 266.19,144.17 267.79,148.47 ZM 259.03 268.67 C256.46,265.51 252.72,261.50 250.53,259.84 C248.71,258.46 246.91,257.34 245.03,256.45 C249.34,258.37 253.18,261.20 256.13,264.91 C257.22,266.27 258.18,267.52 259.03,268.67 ZM 170.50 283.63 L 170.50 297.50 L 170.20 290.12 C170.09,287.30 170.14,285.21 170.50,283.63 ZM 239.77 254.60 C236.64,253.85 233.13,253.55 228.91,253.60 C226.50,253.64 224.20,253.88 222.01,254.32 C227.85,252.99 234.04,253.09 239.77,254.60 ZM 207.85 261.28 C204.35,264.35 201.35,268.33 198.87,273.22 C197.85,275.25 197.03,277.33 196.41,279.44 C198.04,273.49 201.22,267.78 206.11,262.89 C206.67,262.33 207.25,261.79 207.85,261.28 ZM 322.14 241.90 C323.81,240.63 326.05,240.00 328.87,240.00 C329.65,240.00 330.50,240.14 331.21,240.36 C328.79,239.67 324.60,240.40 322.14,241.90 ZM 247.63 178.11 C246.06,178.66 244.73,179.00 243.93,179.00 C242.42,179.00 241.07,178.90 239.80,178.67 C242.60,178.96 245.20,178.78 247.63,178.11 ZM 324.19 227.28 C321.39,230.08 320.03,231.00 317.60,231.29 C319.81,230.72 322.00,229.39 324.19,227.28 ZM 256.99 201.33 C257.00,201.26 257.00,201.18 257.00,201.11 C257.00,199.41 257.95,198.42 259.45,198.15 C258.35,198.58 257.54,199.64 256.99,201.33 ZM 221.43 317.24 C230.34,320.43 240.24,318.01 247.81,311.56 C240.29,318.18 230.26,320.40 221.43,317.24 ZM 258.03 282.96 C257.33,279.17 256.03,275.56 254.19,272.58 C256.24,275.66 257.46,278.96 258.03,282.96 ZM 202.92 298.14 C203.93,301.67 205.64,304.94 207.94,307.80 C206.51,306.11 205.32,304.32 204.46,302.51 C203.84,301.19 203.32,299.72 202.92,298.14 ZM 243.53 205.81 C243.68,205.81 243.82,205.80 243.96,205.79 L 248.53 205.55 C247.67,205.89 246.16,205.94 243.53,205.81 ZM 179.26 308.01 C180.31,309.13 180.96,310.48 181.17,312.00 C181.05,311.66 180.89,311.29 180.72,310.86 C180.23,309.70 179.77,308.76 179.26,308.01 ZM 225.59 148.77 C221.60,156.26 222.18,166.25 230.26,173.54 L 230.21 173.50 C222.12,166.22 221.57,156.24 225.59,148.77 ZM 280.51 307.29 C280.52,307.27 280.54,307.25 280.56,307.22 C281.63,305.69 282.83,305.12 285.45,305.02 C282.73,305.40 281.41,306.04 280.51,307.29 ZM 249.58 332.54 C251.85,331.36 253.59,330.89 255.37,331.24 C253.80,331.02 252.10,331.47 249.58,332.54 ZM 328.37 220.84 C327.92,223.01 327.08,224.29 325.07,226.39 C326.74,224.58 327.84,222.75 328.37,220.84 ZM 288.67 296.30 C288.58,296.66 288.48,296.92 288.37,297.03 C287.96,297.44 286.02,298.02 283.73,298.45 C286.06,297.97 288.05,297.24 288.50,296.64 C288.56,296.56 288.61,296.45 288.67,296.30 ZM 214.94 114.04 C214.88,114.03 214.82,114.03 214.77,114.03 C213.44,114.01 209.36,117.34 205.68,120.95 C209.32,117.34 213.34,114.00 214.62,114.00 C214.72,114.00 214.82,114.01 214.94,114.04 ZM 284.44 219.84 C284.15,219.21 284.00,218.59 284.01,218.00 C284.01,217.32 284.05,216.74 284.15,216.22 C284.08,216.71 284.10,217.36 284.19,218.25 C284.25,218.88 284.32,219.41 284.44,219.84 ZM 275.13 138.05 C275.21,136.46 275.90,135.16 277.27,133.47 C276.09,134.96 275.36,136.61 275.13,138.05 ZM 348.95 226.88 C350.22,226.52 351.22,225.55 351.93,224.23 C351.27,225.72 350.28,226.58 348.95,226.88 ZM 275.16 178.80 C275.24,180.32 276.03,181.61 277.50,183.00 C275.91,181.50 275.13,180.48 275.16,178.80 ZM 334.79 218.53 C334.49,220.26 333.88,222.08 333.05,223.86 C333.33,223.23 333.58,222.58 333.80,221.93 C334.24,220.63 334.58,219.52 334.79,218.53 ZM 263.80 157.04 C263.70,155.43 263.38,153.81 262.81,152.19 C263.47,154.01 263.79,155.35 263.80,157.04 ZM 285.28 201.11 C284.37,198.72 284.29,197.04 285.40,195.20 C284.34,196.98 284.41,198.65 285.28,201.11 ZM 193.97 170.14 C194.08,170.18 194.20,170.22 194.32,170.25 C195.79,170.66 198.16,171.34 199.58,171.75 C199.68,171.78 199.79,171.82 199.90,171.86 C199.88,171.85 199.85,171.84 199.83,171.84 C198.55,171.47 196.18,170.80 194.57,170.34 C194.36,170.28 194.16,170.21 193.97,170.14 ZM 164.59 300.79 C165.20,303.09 166.41,303.89 168.86,304.38 C166.41,303.93 165.20,303.15 164.59,300.79 ZM 277.66 189.84 C278.97,188.31 279.99,186.90 279.99,186.42 C279.99,186.12 279.69,185.55 279.20,184.89 C279.69,185.55 280.00,186.12 280.00,186.43 C280.00,186.97 279.01,188.32 277.66,189.84 ZM 223.56 119.82 L 223.49 119.85 L 221.21 117.96 ZM 207.94 127.29 L 205.98 129.14 L 205.95 129.10 ZM 253.82 304.83 C254.59,303.69 255.31,302.49 255.96,301.24 C255.37,302.45 254.66,303.64 253.82,304.83 ZM 207.16 149.23 C206.27,150.36 205.05,151.00 203.63,151.01 C203.43,151.01 203.23,151.02 203.05,151.02 C203.22,151.01 203.38,151.00 203.53,151.00 C205.01,151.00 206.26,150.37 207.16,149.23 ZM 270.08 243.60 L 272.02 245.52 C272.59,246.08 273.14,246.64 273.66,247.18 L 272.20 245.72 ZM 201.11 183.02 C201.44,182.54 201.80,182.06 202.16,181.62 C202.47,181.25 202.74,180.91 202.99,180.60 C202.72,180.96 202.40,181.35 202.05,181.78 C201.70,182.22 201.39,182.63 201.11,183.02 ZM 331.79 240.56 C332.19,240.73 332.52,240.92 332.72,241.12 C332.78,241.18 332.85,241.24 332.91,241.29 C332.76,241.20 332.61,241.09 332.45,240.96 C332.26,240.80 332.04,240.67 331.79,240.56 ZM 219.58 169.43 C219.88,170.08 220.22,170.73 220.60,171.39 C220.86,171.87 221.17,172.36 221.52,172.86 C221.14,172.33 220.81,171.80 220.52,171.28 C220.17,170.67 219.86,170.05 219.58,169.43 ZM 334.05 241.46 C334.62,241.28 335.30,240.76 336.22,239.87 C335.28,240.79 334.62,241.30 334.05,241.46 ZM 279.13 313.78 C279.44,315.84 280.36,317.95 281.87,319.86 C280.35,317.93 279.43,315.83 279.13,313.78 ZM 192.19 169.05 C191.54,168.42 191.08,167.58 190.76,166.50 C191.08,167.57 191.55,168.41 192.19,169.05 ZM 192.47 337.21 C192.35,337.13 192.20,337.01 192.03,336.86 C192.18,336.99 192.33,337.11 192.47,337.21 ZM 250.81 139.80 C250.47,139.67 250.12,139.54 249.77,139.42 C250.12,139.54 250.47,139.66 250.81,139.80 ZM 284.16 181.53 C284.26,181.67 284.36,181.81 284.46,181.95 C284.36,181.81 284.26,181.67 284.16,181.53 Z" fill="rgb(217,155,105)"/>

</g>
</svg>