<?xml version="1.0" encoding="UTF-8"?>
<svg version="1.1" xmlns="http://www.w3.org/2000/svg" width="2000" height="1320">
<path d="M0 0 C1.59671906 -0.00346741 3.19343572 -0.00823916 4.79014748 -0.01418173 C9.12560218 -0.02657321 13.46085587 -0.02057612 17.79631078 -0.01122308 C22.49242967 -0.00438353 27.18851605 -0.01493803 31.8846283 -0.02316284 C41.06456723 -0.03645138 50.24443228 -0.03364402 59.42437402 -0.02492492 C66.89186163 -0.01812824 74.35932865 -0.01724021 81.82681847 -0.02049637 C82.89280548 -0.02095607 83.95879249 -0.02141577 85.05708214 -0.0218894 C87.22318044 -0.02284865 89.38927874 -0.02382129 91.55537703 -0.02480717 C111.83308762 -0.0333471 132.11075742 -0.02354955 152.38846131 -0.00740607 C169.7520112 0.00599003 187.11550089 0.00367212 204.47904968 -0.01016235 C224.68341362 -0.02625292 244.88774184 -0.03251717 265.09211129 -0.02332556 C267.25081169 -0.02237001 269.4095121 -0.02142689 271.56821251 -0.02049637 C272.63009415 -0.02003354 273.69197579 -0.01957072 274.78603566 -0.01909386 C282.234841 -0.01651395 289.68362351 -0.02085344 297.13242531 -0.02793503 C306.22419405 -0.03638922 315.31588518 -0.03398834 324.40764514 -0.0180928 C329.03801864 -0.01026157 333.66826323 -0.00702938 338.29863548 -0.01704025 C381.30575295 -0.10235208 381.30575295 -0.10235208 400.58573914 6.06845093 C401.40413269 6.32481323 402.22252625 6.58117554 403.0657196 6.8453064 C442.77013391 19.7574984 472.35414664 49.52312506 491.23808289 85.92782593 C503.1469002 109.81648089 506.56707143 134.73332799 506.51176453 161.14120483 C506.5114821 163.0342814 506.51164147 164.92735807 506.51220703 166.82043457 C506.51249285 171.93539144 506.50663092 177.05032466 506.49963307 182.16527605 C506.49336369 187.51974904 506.49279291 192.87422263 506.49160767 198.22869873 C506.4885049 208.35733755 506.48030576 218.48596553 506.47025818 228.61459959 C506.45906425 240.15028164 506.45357833 251.68596422 506.44856274 263.22165036 C506.43812224 286.94142343 506.42034082 310.66118611 506.39823914 334.38095093 C498.14823914 333.39095093 489.89823914 332.40095093 481.39823914 331.38095093 C479.12509445 325.69808922 476.96929984 320.23281426 475.06718445 314.45809937 C469.02941869 296.28538987 461.06250774 275.43323085 446.84681702 261.96339417 C443.19695257 257.54936737 443.72392274 252.73366836 443.80229187 247.24520874 C443.79823334 246.13207809 443.7941748 245.01894745 443.78999329 243.87208557 C443.78447913 241.4576644 443.79047576 239.04319559 443.80665398 236.62882233 C443.83211144 232.79209446 443.82725933 228.95643951 443.8147583 225.11965942 C443.79576002 217.6479369 443.80964184 210.17657487 443.83023071 202.70487213 C443.85709644 192.58992761 443.86309827 182.4753593 443.8352375 172.36040497 C443.83190981 168.60831114 443.85299618 164.85690239 443.87564087 161.10488892 C443.89758965 143.40843154 442.30063515 127.48525068 434.39823914 111.38095093 C433.9457782 110.44895874 433.49331726 109.51696655 433.02714539 108.55673218 C429.56096709 101.82163776 425.27167762 96.1534724 420.39823914 90.38095093 C419.61448914 89.34970093 418.83073914 88.31845093 418.02323914 87.25595093 C403.43805275 71.28169918 382.14349671 62.30426059 360.76995564 61.19216645 C356.7718949 61.11624611 352.77628294 61.09939886 348.77775574 61.10679626 C347.23882461 61.10233381 345.69989576 61.09701649 344.16097021 61.09092754 C339.96667801 61.07685797 335.7724603 61.07508213 331.57814789 61.07552445 C327.04076635 61.07386641 322.50341463 61.06078168 317.96604919 61.04933167 C308.06076659 61.02655892 298.15550551 61.01856947 288.25020027 61.01350522 C282.05562143 61.01023933 275.86104874 61.00371152 269.66647339 60.99650383 C252.4869685 60.97694835 235.30746931 60.96053786 218.12795258 60.9576273 C216.48148173 60.95734594 216.48148173 60.95734594 214.80174884 60.9570589 C212.57693958 60.95669267 210.35213032 60.95632897 208.12732106 60.95596779 C207.02305215 60.95578498 205.91878324 60.95560217 204.78105164 60.95541382 C203.67542175 60.95523327 202.56979186 60.95505272 201.43065804 60.9548667 C183.52687252 60.95132716 165.62320743 60.92431376 147.71946365 60.88691593 C129.30087215 60.84875315 110.88234029 60.82946924 92.4637084 60.82916778 C82.13724431 60.82858503 71.81092395 60.82021053 61.48449707 60.79117012 C52.68980593 60.76654943 43.89531095 60.75944506 35.10059458 60.77441765 C30.62191974 60.78154293 26.14363139 60.78092066 21.66500092 60.75800705 C3.70455745 60.67150241 -13.33005466 60.71858148 -30.60176086 66.38095093 C-31.68308037 66.71612008 -32.76439987 67.05128923 -33.87848663 67.39661503 C-36.2485094 68.1591116 -38.54287008 69.01361574 -40.85176086 69.94345093 C-41.69271301 70.27369263 -42.53366516 70.60393433 -43.40010071 70.94418335 C-82.10325685 86.51364808 -115.16355937 109.43545014 -146.77095032 136.2996521 C-150.14044603 139.15996186 -153.54220749 141.97365695 -156.97676086 144.75595093 C-162.6819149 149.40122148 -168.22554702 154.22251888 -173.77363586 159.05282593 C-177.38910497 162.20036779 -181.02267305 165.32619025 -184.66426086 168.44345093 C-185.23475159 168.93216675 -185.80524231 169.42088257 -186.39302063 169.92440796 C-189.33878847 172.44697395 -192.28743706 174.96612056 -195.23847961 177.48251343 C-200.4766526 181.95405577 -205.69473701 186.43267567 -210.78926086 191.06845093 C-214.08118292 194.06013253 -217.44767393 196.90619515 -220.91426086 199.69345093 C-226.36552188 204.102332 -231.47889584 208.81619073 -236.60176086 213.59579468 C-239.56052108 216.35441432 -242.58571171 219.02706419 -245.64472961 221.67391968 C-247.98735237 223.71728523 -250.29449509 225.79775952 -252.60176086 227.88095093 C-255.56045837 230.55143437 -258.53102558 233.20393151 -261.53926086 235.81845093 C-265.73757028 239.47394862 -269.84107999 243.2307955 -273.95332336 246.98251343 C-276.10747394 248.93332235 -278.27894555 250.85488705 -280.47676086 252.75595093 C-284.6783773 256.40426808 -288.74445061 260.19474116 -292.82392883 263.9781189 C-295.71522726 266.65481239 -298.62056762 269.30398728 -301.60176086 271.88095093 C-305.71536232 275.4391294 -309.69271361 279.13937213 -313.68159485 282.83578491 C-317.77888155 286.62996357 -321.91595429 290.3764922 -326.07441711 294.10360718 C-328.9325829 296.67904868 -331.76886348 299.27780856 -334.60176086 301.88095093 C-339.05508704 305.972643 -343.53835975 310.02918069 -348.03926086 314.06845093 C-350.90776682 316.65710264 -353.75633832 319.26700662 -356.60176086 321.88095093 C-371.75593555 335.78626054 -387.10283386 349.09085925 -403.60176086 361.38095093 C-404.31847961 361.91865112 -405.03519836 362.45635132 -405.77363586 363.01034546 C-437.91285589 387.04973058 -473.98207166 407.03902301 -512.60176086 418.38095093 C-513.40516907 418.61894409 -514.20857727 418.85693726 -515.03633118 419.10214233 C-517.42783145 419.7993009 -519.82460429 420.47151083 -522.22676086 421.13095093 C-522.89320618 421.31778442 -523.55965149 421.50461792 -524.24629211 421.69711304 C-538.99140974 425.54419169 -553.80928021 426.82776258 -568.98950195 426.76622009 C-570.75579002 426.7702397 -572.52207549 426.7755732 -574.28835613 426.78208584 C-579.08306518 426.7960834 -583.87760249 426.79185589 -588.67231953 426.78437269 C-593.8659492 426.77959524 -599.05954138 426.7922298 -604.25315857 426.80273438 C-613.23553193 426.81864745 -622.21786027 426.82399138 -631.20024681 426.8222065 C-644.20437896 426.81981339 -657.20843971 426.83586864 -670.21255312 426.85665905 C-691.33845894 426.89012272 -712.46435834 426.91182506 -733.59028625 426.9246521 C-734.85233727 426.92542159 -736.11438828 426.92619108 -737.41468326 426.92698389 C-742.52825252 426.93008616 -747.64182179 426.93316897 -752.75539107 426.93622393 C-766.83837855 426.94475821 -780.9213638 426.95565964 -795.00434875 426.96762085 C-796.26575767 426.96868887 -797.52716658 426.96975689 -798.82680001 426.97085727 C-819.88187987 426.98896847 -840.93694448 427.01496844 -861.99200946 427.04575199 C-874.95953559 427.06426533 -887.92702744 427.07521922 -900.89456699 427.07627391 C-909.78005262 427.07737993 -918.66551474 427.08535515 -927.55099043 427.09865756 C-932.67096901 427.10605176 -937.79089615 427.11019146 -942.91087914 427.10553932 C-947.60675315 427.10131348 -952.30252673 427.10635806 -956.99838624 427.11844718 C-958.68786093 427.12119178 -960.37734527 427.12063993 -962.06681653 427.11626608 C-990.21246596 427.0493419 -1014.32981346 432.80747246 -1035.15644836 452.83798218 C-1055.29012112 473.73661211 -1059.06059452 498.42518669 -1058.98944092 526.24736023 C-1058.99361632 528.89943477 -1058.99897365 531.55148331 -1059.00576073 534.20355004 C-1059.01809505 539.9582843 -1059.01935411 545.71293698 -1059.0132103 551.46767998 C-1059.00409843 560.02550882 -1059.01216795 568.58326256 -1059.02350154 577.14108565 C-1059.04314863 592.42853232 -1059.04551959 607.71594504 -1059.04030634 623.00340132 C-1059.03574581 636.38372854 -1059.03635252 649.76404234 -1059.04214668 663.14436913 C-1059.04290356 664.94050684 -1059.04365954 666.73664456 -1059.04441463 668.53278228 C-1059.04555985 671.23954189 -1059.04670973 673.9463015 -1059.04787387 676.6530611 C-1059.05857602 701.81205261 -1059.06330707 726.97103966 -1059.05540371 752.13003254 C-1059.05510654 753.07804998 -1059.05480936 754.02606743 -1059.05450318 755.00281267 C-1059.05205435 762.7009386 -1059.04944271 770.39906448 -1059.04681905 778.09719035 C-1059.03671773 808.12107905 -1059.04507101 838.14491182 -1059.0683136 868.16879272 C-1059.09439788 901.91788929 -1059.10723098 935.66695218 -1059.10012585 969.4160592 C-1059.09940981 973.01606794 -1059.09873542 976.61607668 -1059.0980854 980.21608543 C-1059.09791559 981.10246792 -1059.09774579 981.98885041 -1059.09757083 982.90209297 C-1059.09526989 996.26995477 -1059.10323506 1009.63778525 -1059.11637688 1023.00564003 C-1059.13130003 1038.21237703 -1059.13211535 1053.41904076 -1059.11430597 1068.62577621 C-1059.10475593 1077.12975393 -1059.10615124 1085.63356066 -1059.12354065 1094.1375269 C-1059.13405667 1099.82600776 -1059.12989263 1105.51435883 -1059.11406062 1111.20282699 C-1059.10545772 1114.43858322 -1059.1051648 1117.67394122 -1059.11832993 1120.90969173 C-1059.18171711 1137.68654841 -1058.46609242 1152.94403934 -1050.85176086 1168.25595093 C-1050.51104553 1168.96082642 -1050.1703302 1169.6657019 -1049.81929016 1170.39193726 C-1046.82037921 1176.37669949 -1043.07515075 1181.40754141 -1038.60176086 1186.38095093 C-1037.8167218 1187.35934937 -1037.03168274 1188.3377478 -1036.22285461 1189.34579468 C-1029.83442152 1197.01748323 -1021.19582056 1202.45516655 -1012.28926086 1206.75595093 C-1011.3509845 1207.21977173 -1011.3509845 1207.21977173 -1010.39375305 1207.69296265 C-995.44179846 1214.52337168 -980.58903261 1214.95767582 -964.46929932 1214.88431549 C-962.13951846 1214.88849367 -959.80974021 1214.89442284 -957.47996771 1214.90193295 C-951.75570812 1214.91585064 -946.03167393 1214.9113016 -940.30741588 1214.89887269 C-933.39645151 1214.88494323 -926.48556672 1214.89454207 -919.57460288 1214.90472935 C-906.66104803 1214.92308963 -893.7475563 1214.92254874 -880.83399582 1214.91160583 C-867.75317481 1214.90058882 -854.67239532 1214.89828907 -841.59157181 1214.90655518 C-840.35084524 1214.90733021 -840.35084524 1214.90733021 -839.08505348 1214.9081209 C-835.7160248 1214.91025406 -832.34699616 1214.9124489 -828.97796757 1214.91472201 C-797.61965743 1214.9358647 -766.2613751 1214.93732063 -734.90306091 1214.9261322 C-733.97439617 1214.92580102 -733.04573142 1214.92546984 -732.08892532 1214.92512862 C-731.15877076 1214.9247969 -730.22861621 1214.92446518 -729.27027515 1214.92412341 C-700.92803876 1214.91402912 -672.58581386 1214.91142584 -644.24357605 1214.91621399 C-642.34535676 1214.91652391 -640.44713747 1214.91683253 -638.54891818 1214.91713987 C-630.92068461 1214.91838175 -623.29245105 1214.91965641 -615.6642175 1214.92097892 C-594.34039478 1214.92464688 -573.01657202 1214.92692934 -551.69274902 1214.92812347 C-550.23621714 1214.92820535 -550.23621714 1214.92820535 -548.75026037 1214.92828888 C-517.81117647 1214.92992589 -486.87209657 1214.92541894 -455.93301392 1214.91672516 C-454.92959214 1214.91644416 -453.92617036 1214.91616317 -452.89234187 1214.91587366 C-436.59761415 1214.91129391 -420.30288653 1214.90641604 -404.00815891 1214.90151296 C-339.3821219 1214.88208775 -274.75611804 1214.88298936 -210.13008118 1214.9024353 C-193.84355676 1214.9073201 -177.55703233 1214.91216432 -161.27050781 1214.91672516 C-160.26767539 1214.91700695 -159.26484298 1214.91728874 -158.2316217 1214.91757908 C-127.3246715 1214.92620432 -96.41772407 1214.92986082 -65.51077271 1214.92812347 C-64.54046528 1214.92806914 -63.57015785 1214.9280148 -62.57044717 1214.92795882 C-41.27028059 1214.92670888 -19.97011431 1214.92417428 1.33005198 1214.92048146 C8.95144945 1214.91916491 16.57284693 1214.91791258 24.19424442 1214.91667862 C26.09023451 1214.91636906 27.9862246 1214.91605414 29.88221469 1214.91573383 C58.21661585 1214.9109602 86.55100405 1214.9150238 114.88540359 1214.92512862 C115.81406834 1214.9254598 116.74273308 1214.92579098 117.69953918 1214.9261322 C118.62648938 1214.92646293 119.55343957 1214.92679366 120.50847916 1214.92713441 C151.77666706 1214.93816868 183.0448216 1214.93410605 214.31300473 1214.91300923 C217.67135315 1214.91079983 221.02970159 1214.90865301 224.38805008 1214.90655518 C225.62433641 1214.90577393 225.62433641 1214.90577393 226.88559822 1214.90497691 C239.93060636 1214.89709052 252.97557297 1214.90257691 266.02057736 1214.9136312 C278.8507666 1214.92421815 291.68088586 1214.92048749 304.51106624 1214.90157485 C311.37286566 1214.89184554 318.23452212 1214.88829998 325.09631646 1214.90319878 C331.34116901 1214.91613657 337.58572509 1214.9106066 343.83055611 1214.89047614 C346.07315379 1214.88645431 348.31577612 1214.889094 350.55835418 1214.89929989 C377.0400527 1215.01124547 399.02705686 1208.74434362 418.79667664 1190.14266968 C437.9403215 1169.82051214 442.68077333 1144.58879388 442.71708679 1117.71517944 C442.72641269 1116.10707104 442.73658518 1114.49896736 442.74752808 1112.89086914 C442.77454264 1108.57578924 442.78989149 1104.26074144 442.8029561 1099.94559979 C442.81871331 1095.41725359 442.84546253 1090.88897178 442.87098694 1086.360672 C442.9175539 1077.80823991 442.95440402 1069.25579541 442.98765981 1060.70330232 C443.02603839 1050.95702969 443.07540668 1041.21082209 443.12564397 1031.4646045 C443.2286349 1011.43676743 443.31761108 991.40888944 443.39823914 971.38095093 C450.98823914 971.71095093 458.57823914 972.04095093 466.39823914 972.38095093 C470.87236267 981.32919801 470.87236267 981.32919801 472.25761414 984.60751343 C480.66703451 1004.20150708 491.23692315 1022.21963494 506.39823914 1037.38095093 C506.50969191 1040.52229898 506.55564977 1043.64185279 506.55937195 1046.7840271 C506.56433685 1047.77295959 506.56930176 1048.76189209 506.57441711 1049.78079224 C506.58910783 1053.07850837 506.59585922 1056.37617608 506.60136414 1059.67391968 C506.60711874 1061.97391256 506.61287643 1064.27390544 506.61863708 1066.57389832 C506.62917258 1071.41884586 506.63499564 1076.26377673 506.63847351 1081.10873413 C506.64390304 1087.25757972 506.66779926 1093.40619761 506.69644547 1099.55497265 C506.71528048 1104.32114753 506.72028883 1109.08727047 506.72180939 1113.85347939 C506.72479986 1116.11562633 506.73270313 1118.37777317 506.74599457 1120.63988304 C506.96706735 1161.2303308 497.53311825 1198.28255015 470.39823914 1229.38095093 C469.79237976 1230.10798218 469.18652039 1230.83501343 468.56230164 1231.58407593 C464.54601157 1236.34546958 460.22186503 1240.44610032 455.39823914 1244.38095093 C454.47398132 1245.14278687 453.54972351 1245.9046228 452.59745789 1246.68954468 C425.40875126 1268.62165246 392.24038311 1279.59943614 357.38896549 1279.50745076 C356.43884715 1279.50897731 355.48872881 1279.51050386 354.50981901 1279.51207666 C351.33757394 1279.51596227 348.1653769 1279.51276635 344.99313164 1279.50958538 C342.68142227 1279.51093255 340.36971311 1279.51271674 338.05800438 1279.51489761 C331.69062016 1279.51962877 325.32325024 1279.51812557 318.95586531 1279.51561984 C312.74814206 1279.51366475 306.54042077 1279.51739748 300.33269839 1279.52049038 C287.48232744 1279.52672144 274.63195985 1279.52819689 261.7815876 1279.52707291 C248.75995463 1279.52594829 235.73832451 1279.5269831 222.71669197 1279.53064537 C221.89405445 1279.53087502 221.07141693 1279.53110468 220.223851 1279.53134129 C216.87333282 1279.53228293 213.52281464 1279.53323862 210.17229647 1279.53421248 C175.22220258 1279.54435615 140.27211029 1279.54741844 105.32201509 1279.54800459 C101.56018959 1279.54806934 97.7983641 1279.54813728 94.0365386 1279.548208 C92.63627873 1279.54823351 92.63627873 1279.54823351 91.20773079 1279.54825953 C70.5206276 1279.548668 49.83352472 1279.55085796 29.1464217 1279.55336384 C20.62799412 1279.5543922 12.10956654 1279.55538223 3.59113896 1279.55638009 C2.6499235 1279.55649068 1.70870804 1279.55660127 0.73897091 1279.55671521 C-53.19734557 1279.5630393 -107.13366185 1279.56716433 -161.06997871 1279.56670666 C-163.08845278 1279.56669088 -165.10692684 1279.56667514 -167.1254009 1279.56665945 C-176.23863512 1279.56658607 -185.35186933 1279.5664979 -194.46510355 1279.56640556 C-198.52892262 1279.56636444 -202.59274168 1279.56632429 -206.65656075 1279.56628425 C-208.69057534 1279.56626386 -210.72458994 1279.56624284 -212.75860453 1279.56622119 C-277.07709389 1279.56554094 -341.39557774 1279.57285839 -405.71406555 1279.58676147 C-421.91933757 1279.5902625 -438.1246096 1279.59373196 -454.32988167 1279.59702587 C-455.32770628 1279.59722875 -456.32553088 1279.59743162 -457.3535926 1279.59764064 C-488.10790993 1279.60385571 -518.8622268 1279.60762121 -549.61654472 1279.60888386 C-551.06491165 1279.60894378 -551.06491165 1279.60894378 -552.54253852 1279.60900492 C-573.73942463 1279.6098582 -594.93631071 1279.61011939 -616.13319683 1279.60983454 C-623.717854 1279.60973806 -631.30251117 1279.60968602 -638.88716834 1279.60965582 C-640.77403525 1279.6096479 -642.66090216 1279.6096377 -644.54776907 1279.60962519 C-674.61058885 1279.60944888 -704.67340391 1279.61514625 -734.73622234 1279.62377901 C-765.01587069 1279.63242983 -795.29551252 1279.63461943 -825.57516158 1279.62801769 C-829.76071015 1279.62710541 -833.94625874 1279.62626213 -838.13180733 1279.62545967 C-839.3625096 1279.62521954 -839.3625096 1279.62521954 -840.61807455 1279.62497456 C-853.60122252 1279.62262298 -866.58435919 1279.62697582 -879.56750504 1279.63413086 C-892.33880852 1279.6410285 -905.11009535 1279.64076969 -917.88139847 1279.63293872 C-924.71102884 1279.62894515 -931.54061682 1279.62831475 -938.37024488 1279.63639607 C-944.58709111 1279.64368796 -950.80386403 1279.64172298 -957.02070703 1279.63247221 C-959.25208755 1279.63075521 -961.48347386 1279.63236512 -963.71484849 1279.63777341 C-979.70244792 1279.67391855 -995.36059773 1279.05625245 -1010.97676086 1275.25595093 C-1011.84905334 1275.04422241 -1012.72134583 1274.8324939 -1013.62007141 1274.61434937 C-1049.02455834 1265.52431047 -1081.0895936 1241.67962534 -1100.08564758 1210.4793396 C-1113.67916477 1187.48616722 -1121.78010235 1163.22327256 -1121.73318863 1136.31117439 C-1121.73524126 1135.21158185 -1121.7372939 1134.11198931 -1121.73940873 1132.97907579 C-1121.74507287 1129.28653568 -1121.74362219 1125.59403294 -1121.74220276 1121.90148926 C-1121.74478673 1119.23041644 -1121.74776127 1116.55934661 -1121.75120616 1113.88827503 C-1121.75877413 1107.31197597 -1121.76097861 1100.73568503 -1121.76153522 1094.15938207 C-1121.76245005 1086.28102701 -1121.76912119 1078.40267943 -1121.77588204 1070.5243276 C-1121.79193264 1051.48297786 -1121.7978444 1032.44162893 -1121.80263079 1013.40027364 C-1121.80496782 1004.38927354 -1121.80857061 995.37827407 -1121.81232616 986.36727447 C-1121.82516126 955.5112644 -1121.83588015 924.65525469 -1121.83932877 893.79924202 C-1121.8395504 891.86270604 -1121.83977218 889.92617007 -1121.83999412 887.98963409 C-1121.84021476 886.04846421 -1121.84043524 884.10729434 -1121.84065557 882.16612446 C-1121.84109811 878.27191297 -1121.84154523 874.37770148 -1121.84199524 870.48348999 C-1121.84210463 869.51795384 -1121.84221402 868.55241768 -1121.84232673 867.55762286 C-1121.84595631 836.25921828 -1121.86187284 804.96083688 -1121.8851856 773.66244117 C-1121.90979783 740.55881586 -1121.92350227 707.45520379 -1121.92469668 674.35156906 C-1121.92486813 670.71549789 -1121.92508356 667.07942672 -1121.92533112 663.44335556 C-1121.92538688 662.54807652 -1121.92544265 661.65279747 -1121.92550011 660.73038876 C-1121.92664939 646.34055583 -1121.93766093 631.95074673 -1121.95221817 617.56092184 C-1121.96660544 603.08849802 -1121.96980758 588.61610465 -1121.96177819 574.14367564 C-1121.95733235 565.5535181 -1121.96114057 556.96345909 -1121.9770167 548.37331455 C-1121.98680586 542.62466732 -1121.98555112 536.87608871 -1121.97558047 531.12744202 C-1121.97021661 527.8589167 -1121.97107241 524.59061584 -1121.98208919 521.32209934 C-1122.02617264 507.35335628 -1121.54567289 494.06229939 -1118.60176086 480.38095093 C-1118.39836129 479.42930467 -1118.19496172 478.47765841 -1117.98539853 477.49717438 C-1117.52251303 475.43525194 -1116.99625894 473.41217295 -1116.41426086 471.38095093 C-1116.20631897 470.65077759 -1115.99837708 469.92060425 -1115.78413391 469.16830444 C-1110.01524195 449.8636724 -1099.99852065 431.41377518 -1086.60176086 416.38095093 C-1085.88375305 415.5430603 -1085.16574524 414.70516968 -1084.42597961 413.84188843 C-1060.91421343 386.8639116 -1028.09734285 369.7604471 -992.60176086 365.38095093 C-990.09410226 365.29251958 -987.58445289 365.25266677 -985.07523632 365.25066566 C-983.98220903 365.24775052 -983.98220903 365.24775052 -982.86710039 365.24477649 C-980.43026294 365.23947071 -977.9934825 365.2412162 -975.55664062 365.24291992 C-973.78976291 365.2405007 -972.02288575 365.23763806 -970.2560094 365.23437059 C-965.40389628 365.22662706 -960.55179732 365.22499868 -955.69967878 365.22431946 C-950.4649121 365.22247792 -945.23015367 365.21486982 -939.99539185 365.20783997 C-930.9227884 365.1963176 -921.8501868 365.18807137 -912.77757835 365.18172073 C-898.42695266 365.17138577 -884.07635004 365.15081889 -869.72573853 365.12860107 C-864.81343754 365.12112133 -859.90113645 365.11370756 -854.98883533 365.10631371 C-853.76115782 365.10446314 -852.5334803 365.10261257 -851.26860043 365.10070593 C-837.29461384 365.07978029 -823.32062469 365.06095247 -809.34663391 365.0430603 C-808.06934966 365.04142212 -806.7920654 365.03978394 -805.47607557 365.03809611 C-784.7957999 365.01183363 -764.11552246 364.99317758 -743.43523719 364.9764684 C-722.1884146 364.9590247 -700.94162687 364.93015394 -679.69483215 364.89157903 C-666.59912389 364.86822673 -653.5034725 364.85418875 -640.40774325 364.8522514 C-631.42352924 364.8501359 -622.43937169 364.8371556 -613.45518305 364.81577207 C-608.27831532 364.80379016 -603.10155962 364.79656014 -597.9246788 364.80248451 C-593.17389211 364.80782363 -588.42333291 364.79915773 -583.67258403 364.77992813 C-581.96522238 364.77539559 -580.25783812 364.7757631 -578.5504814 364.78187652 C-563.31047582 364.83152152 -548.61672563 362.98913445 -533.97676086 358.56845093 C-533.09471985 358.30693237 -532.21267883 358.04541382 -531.3039093 357.77597046 C-502.860883 349.19357851 -475.91922508 335.4064754 -451.60176086 318.38095093 C-451.06277161 318.00647827 -450.52378235 317.63200562 -449.96846008 317.2461853 C-431.36621941 304.29720319 -414.21516954 289.77115013 -397.60176086 274.38095093 C-395.66500481 272.60930398 -393.7274951 270.83848059 -391.78926086 269.06845093 C-387.15563466 264.82889804 -382.56223947 260.54748123 -377.97676086 256.25595093 C-373.07322184 251.6676966 -368.13262305 247.12946232 -363.12519836 242.65438843 C-360.09297933 239.92257499 -357.09641059 237.15380684 -354.10176086 234.38095093 C-349.48100722 230.10361808 -344.82670293 225.86785024 -340.13691711 221.66610718 C-337.23262763 219.04821913 -334.35408919 216.40338036 -331.47676086 213.75595093 C-327.5851023 210.17758311 -323.65494945 206.65263418 -319.66035461 203.18954468 C-317.11219437 200.95083843 -314.60765494 198.66684881 -312.10176086 196.38095093 C-308.31167005 192.92451322 -304.49120053 189.51251239 -300.61738586 186.15048218 C-298.31568322 184.12980137 -296.05411708 182.06782475 -293.78926086 180.00595093 C-290.36946759 176.91458292 -286.88217563 173.95636061 -283.28926086 171.06845093 C-278.4759065 167.17839161 -273.95414636 163.05223259 -269.44062805 158.82528687 C-265.22782945 154.90216499 -260.83780735 151.26198678 -256.34785461 147.65829468 C-253.33855817 145.16267615 -250.4625601 142.54310904 -247.60176086 139.88095093 C-243.06791476 135.66691066 -238.3893495 131.69869478 -233.57051086 127.81454468 C-230.08843992 124.96016284 -226.68540955 122.02407681 -223.28926086 119.06845093 C-222.65560608 118.51721558 -222.02195129 117.96598022 -221.36909485 117.39804077 C-220.08310832 116.27901259 -218.79721979 115.15987179 -217.51142883 114.0406189 C-209.57997427 107.14749333 -201.59532397 100.33693037 -193.43379211 93.71688843 C-190.77796665 91.52629032 -188.16651283 89.29414483 -185.56367493 87.04135132 C-144.16653777 51.22041081 -96.45511676 21.47777788 -43.66426086 6.00595093 C-42.89759094 5.77923706 -42.13092102 5.55252319 -41.34101868 5.31893921 C-27.62756317 1.49814626 -14.19119748 -0.06844352 0 0 Z " fill="#FF8C41" transform="translate(1140.6017608642578,12.619049072265625)"/>
<path d="M0 0 C12.11021278 8.64396226 16.77228797 22.348131 21.51953125 35.84375 C21.88978928 36.88648071 22.2600473 37.92921143 22.64152527 39.00354004 C23.41438049 41.18412689 24.18480899 43.36557527 24.95288086 45.54785156 C26.13257098 48.89649079 27.32262366 52.24132356 28.51367188 55.5859375 C29.26624269 57.71332326 30.0182176 59.84091993 30.76953125 61.96875 C31.12570023 62.96869995 31.4818692 63.9686499 31.84883118 64.99890137 C32.1730455 65.92416626 32.49725983 66.84943115 32.83129883 67.80273438 C33.11822098 68.61560913 33.40514313 69.42848389 33.70075989 70.26599121 C34.3125 72.375 34.3125 72.375 34.3125 75.375 C35.93369751 75.35143433 35.93369751 75.35143433 37.58764648 75.32739258 C58.32878651 75.05306301 78.80721314 74.78241999 99.3125 78.375 C100.28429199 78.54128906 101.25608398 78.70757812 102.25732422 78.87890625 C120.91061155 82.17012506 139.84562935 86.94920411 157.16064453 94.73608398 C159.69322305 95.488042 160.87977793 95.36219156 163.3125 94.375 C165.13845925 92.5194466 166.75059632 90.70626421 168.375 88.6875 C168.85396729 88.10734131 169.33293457 87.52718262 169.82641602 86.92944336 C173.66778498 82.249364 177.38527454 77.47202532 181.10668945 72.6965332 C184.50832534 68.35063656 187.99465275 64.08552041 191.5625 59.875 C192.03357178 59.31176025 192.50464355 58.74852051 192.98999023 58.16821289 C201.27910864 48.48047733 211.40255394 41.86700019 224.3125 40.375 C240.11628817 39.23304885 253.49686075 43.15756094 265.5625 53.4375 C267.24853474 54.90282742 268.92477309 56.37837665 270.59619141 57.86035156 C272.8765125 59.87274304 275.18842589 61.84677264 277.50195312 63.82080078 C279.25834549 65.31962164 281.0105008 66.82326318 282.76171875 68.328125 C285.15638299 70.3846645 287.55506169 72.43637314 289.95703125 74.484375 C292.88421177 76.98105301 295.8039545 79.48612053 298.71679688 81.99951172 C300.20910399 83.28587315 301.70594955 84.56696428 303.203125 85.84765625 C311.71652384 93.27776332 318.6800264 100.58230064 319.62890625 112.2734375 C320.26965559 128.40471052 314.78168561 140.39529757 303.9375 152.375 C303.17308594 153.19484375 302.40867187 154.0146875 301.62109375 154.859375 C298.52022133 158.23832904 295.66920651 161.79617709 292.7890625 165.36328125 C290.93493271 167.61806684 289.06064303 169.8383823 287.1484375 172.04296875 C286.60614502 172.66848633 286.06385254 173.29400391 285.50512695 173.93847656 C284.43948275 175.16356042 283.37044272 176.38570081 282.29760742 177.60449219 C280.93832943 179.16832281 279.6230123 180.77008244 278.3125 182.375 C277.77238281 183.01953125 277.23226562 183.6640625 276.67578125 184.328125 C276.12731827 187.41838955 277.72690458 189.13613698 279.43823242 191.60107422 C279.93299072 192.28959473 280.42774902 192.97811523 280.9375 193.6875 C291.86655459 209.73366706 300.35313548 227.27724079 307.3125 245.375 C307.68503906 246.34195801 308.05757812 247.30891602 308.44140625 248.30517578 C315.9880357 268.1026249 324.15678816 289.84565189 323.3125 311.375 C324.1070459 311.48094482 324.9015918 311.58688965 325.72021484 311.69604492 C335.03228183 312.97792966 344.27642485 314.52655897 353.51757812 316.24194336 C355.13337672 316.53944461 356.75026299 316.83109684 358.36816406 317.11694336 C375.16236793 320.08590659 389.84110798 324.07710617 400.125 338.6875 C403.68036522 343.97070626 406.44868019 349.27897055 408.3125 355.375 C408.53550781 356.07625 408.75851562 356.7775 408.98828125 357.5 C411.99658527 368.63277133 410.34804503 380.32858116 408.046875 391.421875 C407.6948703 393.1877597 407.6948703 393.1877597 407.33575439 394.98931885 C406.84116841 397.45431447 406.34002081 399.91800208 405.83251953 402.38037109 C405.06217793 406.12656623 404.31673657 409.87710827 403.57421875 413.62890625 C403.08740377 416.03935909 402.59917092 418.44952611 402.109375 420.859375 C401.88940857 421.96690125 401.66944214 423.07442749 401.44281006 424.21551514 C399.05835309 435.65606062 395.65758515 446.88715498 385.91796875 454.1640625 C370.08903191 464.03587257 355.08005638 462.93891232 337.46411133 459.97631836 C335.01722164 459.56539217 332.56848924 459.16746035 330.11914062 458.77148438 C321.09346376 457.29317322 312.19214591 455.58475 303.3125 453.375 C303.02745605 454.2719458 302.74241211 455.1688916 302.44873047 456.09301758 C295.27012522 476.82829698 281.2645805 496.61962608 267.3125 513.375 C266.86503418 513.92397949 266.41756836 514.47295898 265.95654297 515.03857422 C251.84976337 532.34067296 236.02226635 548.10721907 217.3125 560.375 C218.52351967 566.45370518 220.157336 572.1824816 222.31640625 577.98828125 C222.74142677 579.15353584 222.74142677 579.15353584 223.17503357 580.34233093 C224.06971999 582.79270148 224.97191788 585.24021271 225.875 587.6875 C226.78035811 590.15308952 227.68408391 592.61925904 228.5856781 595.08622742 C229.14412752 596.61302361 229.70494338 598.13895693 230.26844788 599.66389465 C234.39652498 610.91221047 235.42815393 623.6630581 230.57421875 634.88671875 C221.82489685 652.1415734 209.90890572 659.8849726 191.71484375 666.14453125 C190.5593251 666.55160812 189.40380646 666.958685 188.21327209 667.37809753 C185.79099057 668.22831247 183.36659148 669.07251678 180.94018555 669.91088867 C177.25065616 671.187273 173.56942771 672.48566863 169.88867188 673.78710938 C167.51868798 674.61589652 165.14825964 675.44341406 162.77734375 676.26953125 C161.14719582 676.84451103 161.14719582 676.84451103 159.4841156 677.43110657 C146.20342742 681.99142139 133.94043944 684.46203735 120.65625 678.59765625 C103.12981978 669.45470182 97.22984961 651.87810976 90.87841797 634.39916992 C89.92672245 631.78287154 88.96216399 629.17156726 87.99609375 626.56054688 C87.38466181 624.89350584 86.77395718 623.22619781 86.1640625 621.55859375 C85.87665192 620.78051865 85.58924133 620.00244354 85.29312134 619.20079041 C84.18464366 616.1342617 83.3125 613.66221519 83.3125 610.375 C82.55710937 610.4471875 81.80171875 610.519375 81.0234375 610.59375 C37.59204187 614.25541333 -4.07974704 606.14173795 -44.38085938 590.27587891 C-47.80309388 588.93929494 -51.24423013 587.65630895 -54.6875 586.375 C-54.90148438 586.89835938 -55.11546875 587.42171875 -55.3359375 587.9609375 C-57.23726513 591.35695044 -59.74693261 594.08796867 -62.3125 597 C-65.9206818 601.14545615 -69.47852881 605.30221848 -72.875 609.625 C-82.9475271 622.33059435 -92.22334798 632.81741941 -108.6875 636.375 C-125.23107707 637.68200992 -138.19734521 635.38197706 -151.16015625 624.515625 C-154.39976581 621.7392414 -157.59004948 618.90868806 -160.77490234 616.06982422 C-163.73490403 613.44685617 -166.7415313 610.87955701 -169.75 608.3125 C-170.90113365 607.32693034 -172.05217528 606.3412532 -173.203125 605.35546875 C-176.19762196 602.79322827 -179.19411345 600.23332733 -182.19116211 597.67407227 C-183.96158709 596.15789647 -185.72502997 594.63388141 -187.48828125 593.109375 C-189.4159986 591.44678293 -191.35694742 589.84571507 -193.35546875 588.265625 C-200.17737199 582.73496978 -205.12790579 575.16239103 -206.6875 566.375 C-208.10635356 548.32532196 -201.56449744 537.22118901 -190.3125 523.9375 C-189.35777546 522.82335708 -188.40205072 521.71007045 -187.4453125 520.59765625 C-184.97856921 517.72774448 -182.57350295 514.81260579 -180.1875 511.875 C-175.10816278 505.63414465 -169.90061192 499.50406056 -164.6875 493.375 C-167.13100517 488.16927159 -169.93415045 483.27503491 -172.9375 478.375 C-177.66857961 470.59742877 -181.81094104 462.60891584 -185.6875 454.375 C-185.98897949 453.73481934 -186.29045898 453.09463867 -186.60107422 452.43505859 C-191.752153 441.36571908 -195.92428956 429.98421474 -199.6875 418.375 C-200.04739014 417.26584229 -200.04739014 417.26584229 -200.41455078 416.13427734 C-203.41267234 406.6813008 -205.39447318 397.15829744 -207 387.375 C-207.17168701 386.33641846 -207.34337402 385.29783691 -207.52026367 384.2277832 C-208.4954195 377.8930855 -208.90276753 371.7816453 -208.6875 365.375 C-209.46464355 365.26905518 -210.24178711 365.16311035 -211.04248047 365.05395508 C-220.78051693 363.69719967 -230.48217773 362.15949028 -240.17431641 360.50805664 C-241.93571452 360.21057824 -243.69810629 359.91892567 -245.46142578 359.63305664 C-263.06129539 356.77580794 -276.49279755 352.86605232 -288.0625 338.375 C-296.56532842 326.22123961 -298.15011547 312.38975918 -295.74121094 297.99243164 C-295.31219116 295.67132543 -294.87190396 293.35228075 -294.421875 291.03515625 C-294.1872052 289.79181015 -293.9525354 288.54846405 -293.71075439 287.2674408 C-293.21453943 284.6519103 -292.71448383 282.03750112 -292.20751953 279.42407227 C-291.56526186 276.11083502 -290.93940831 272.79475747 -290.31869125 269.47742558 C-289.71565398 266.26589488 -289.09949217 263.05689153 -288.484375 259.84765625 C-288.26440857 258.67542007 -288.04444214 257.5031839 -287.81781006 256.29542542 C-285.04606174 242.11956625 -281.80152851 230.41730537 -269.8125 221.5 C-265.30270072 218.53915913 -260.91724335 216.64930394 -255.6875 215.375 C-254.759375 215.148125 -253.83125 214.92125 -252.875 214.6875 C-243.45331301 213.7638052 -234.55335246 214.62651179 -225.28125 216.34375 C-224.15352173 216.5435144 -223.02579346 216.74327881 -221.8638916 216.94909668 C-218.30328641 217.58140445 -214.74536303 218.22745734 -211.1875 218.875 C-207.60068884 219.52010646 -204.01338514 220.16227432 -200.42541504 220.80090332 C-198.20320726 221.19723234 -195.98173418 221.59770858 -193.7611084 222.00280762 C-192.75906372 222.18299438 -191.75701904 222.36318115 -190.72460938 222.54882812 C-189.40656311 222.78865417 -189.40656311 222.78865417 -188.06188965 223.0333252 C-185.42743823 223.46995528 -185.42743823 223.46995528 -181.6875 223.375 C-181.42759277 222.87911377 -181.16768555 222.38322754 -180.89990234 221.87231445 C-169.23195643 199.76795484 -155.68943068 178.99419852 -138.7109375 160.5859375 C-136.9315646 158.64168063 -135.24661974 156.65107298 -133.5625 154.625 C-124.37098843 144.1143363 -112.28685726 131.67467863 -99.6875 125.375 C-101.07773303 118.37935097 -103.15916148 111.88475798 -105.6015625 105.19140625 C-106.37119244 103.02458557 -107.13937517 100.85725042 -107.90625 98.68945312 C-109.10198023 95.32133311 -110.30535026 91.95702749 -111.53417969 88.60083008 C-117.30298589 72.79490734 -123.20239088 56.31954023 -116.01171875 39.89453125 C-103.78848097 16.63792839 -83.10700516 11.15153744 -59.5625 3 C-57.20284047 2.17398944 -54.84346305 1.34717253 -52.484375 0.51953125 C-48.19154974 -0.98169514 -43.89862629 -2.48256824 -39.60107422 -3.97021484 C-38.74617401 -4.26664886 -37.8912738 -4.56308289 -37.01046753 -4.86849976 C-24.07863868 -9.07989383 -11.5020848 -6.89733194 0 0 Z M-80.6875 219.375 C-84.56688115 223.88124075 -88.17438501 228.57979249 -91.6875 233.375 C-92.10354492 233.94138184 -92.51958984 234.50776367 -92.94824219 235.09130859 C-111.01567868 260.0576116 -122.40598175 288.88428187 -126.6875 319.375 C-126.83783691 320.39484985 -126.83783691 320.39484985 -126.99121094 321.43530273 C-127.93487022 328.65631116 -127.93104422 335.91544603 -127.9375 343.1875 C-127.93817474 343.87307983 -127.93884949 344.55865967 -127.93954468 345.26501465 C-127.9215054 356.85129113 -127.17698741 368.03508123 -124.6875 379.375 C-124.51589355 380.15697754 -124.34428711 380.93895508 -124.16748047 381.74462891 C-116.68810558 414.59639616 -101.49230465 444.46507188 -78.640625 469.234375 C-77.05847392 470.96841258 -75.57803119 472.72199382 -74.125 474.5625 C-70.93565086 478.24251824 -67.42819095 481.26645682 -63.6875 484.375 C-63.19556152 484.79523438 -62.70362305 485.21546875 -62.19677734 485.6484375 C-23.89452845 518.29122079 24.74028778 533.69017727 74.84375 530.1015625 C123.52991698 525.60951105 169.79432192 501.47256335 201.21875 463.96875 C229.19905328 429.56251128 244.83006169 388.19630504 244.625 343.6875 C244.62284485 342.84573212 244.6206897 342.00396423 244.61846924 341.13668823 C244.56840822 328.95898455 244.1607723 317.26086096 241.3125 305.375 C241.11914062 304.4998877 240.92578125 303.62477539 240.7265625 302.72314453 C229.96242133 254.34264893 200.19714975 212.99788146 158.7578125 186.03125 C128.77926032 167.10741789 94.88244799 156.90405223 59.4375 157 C58.29497269 157.00081573 58.29497269 157.00081573 57.12936401 157.00164795 C4.65702148 157.17283305 -45.37979624 180.73441565 -80.6875 219.375 Z " fill="#FF8C41" transform="translate(1555.6875,318.625)"/>
<path d="M0 0 C2.24729282 0.00373599 4.49458728 0.00658019 6.74188232 0.00857544 C12.62067257 0.01616574 18.49936202 0.03577414 24.37811279 0.0579834 C30.39138425 0.07854159 36.40467219 0.08759838 42.41796875 0.09765625 C54.19014815 0.11902483 65.96225315 0.15310445 77.734375 0.1953125 C75.9506594 3.98190631 73.57506371 6.87003774 70.78613281 9.95776367 C70.28117279 10.52244858 69.77621277 11.08713348 69.25595093 11.66893005 C64.5397838 16.9115692 59.71323887 22.05056721 54.85219193 27.15880871 C51.60156128 30.57853014 48.39469813 34.02250545 45.27148438 37.55932617 C22.6349183 63.11284269 22.6349183 63.11284269 5.09876823 64.32018757 C-1.36310847 64.54822599 -7.78314303 64.1679949 -14.21727657 63.58013535 C-23.25832862 62.79576946 -30.89887101 65.10903437 -39.265625 68.1953125 C-40.75270012 68.68725481 -42.24102806 69.17542324 -43.73046875 69.66015625 C-68.82777932 78.10005352 -92.56989999 91.12089641 -114.265625 106.1953125 C-114.85585449 106.60394531 -115.44608398 107.01257813 -116.05419922 107.43359375 C-128.29612691 115.94384417 -139.96380424 125.09527771 -151.22875977 134.859375 C-154.6653538 137.83740289 -158.14941365 140.731549 -161.703125 143.5703125 C-167.68212455 148.41719379 -173.23128007 153.69638919 -178.828125 158.97265625 C-181.90868512 161.87351703 -185.05642656 164.67917821 -188.26171875 167.44140625 C-192.479404 171.13290854 -196.57788493 174.95957412 -200.70117188 178.75585938 C-203.21924252 181.07273587 -205.74267937 183.38374769 -208.265625 185.6953125 C-209.26953798 186.61587808 -210.27344423 187.536451 -211.27734375 188.45703125 C-213.23659361 190.25316957 -215.19785752 192.04702831 -217.16015625 193.83984375 C-225.24842398 201.23514075 -233.26546628 208.70487021 -241.265625 216.1953125 C-241.91047852 216.79891602 -242.55533203 217.40251953 -243.21972656 218.02441406 C-251.46216477 225.74117609 -259.68972372 233.47364277 -267.90966797 241.21435547 C-273.3470115 246.33368211 -278.79379034 251.44285083 -284.24389648 256.54858398 C-289.11243355 261.11078076 -293.97152495 265.68291396 -298.828125 270.2578125 C-304.23627991 275.35027076 -309.650203 280.43642284 -315.078125 285.5078125 C-315.62734619 286.02158447 -316.17656738 286.53535645 -316.74243164 287.06469727 C-317.86046806 288.10809972 -318.99202184 289.13719133 -320.1361084 290.15196228 C-322.37624913 292.22286057 -322.37624913 292.22286057 -324.51072693 294.9128418 C-329.65714518 300.6175181 -333.67299098 303.75185254 -341.48843479 304.36508179 C-346.26096092 304.50596079 -351.0098787 304.4096782 -355.78125 304.26953125 C-357.84913977 304.24897956 -359.9170836 304.23333818 -361.98504639 304.22236633 C-367.39186081 304.18064068 -372.79535281 304.07284044 -378.2008667 303.95062256 C-383.73111027 303.83749029 -389.26189814 303.78772872 -394.79296875 303.73242188 C-405.61863636 303.6149371 -416.44185296 303.42754592 -427.265625 303.1953125 C-426.32940763 302.08721817 -425.39088183 300.98107399 -424.45141602 299.87573242 C-423.6678347 298.95143684 -423.6678347 298.95143684 -422.86842346 298.00846863 C-420.48472916 295.31192877 -417.87614652 292.9122886 -415.203125 290.5078125 C-414.05330236 289.45972653 -412.90356514 288.41154684 -411.75390625 287.36328125 C-411.17334473 286.83653809 -410.5927832 286.30979492 -409.99462891 285.76708984 C-407.27995129 283.29927079 -404.58521598 280.81002 -401.890625 278.3203125 C-401.09483032 277.58615112 -401.09483032 277.58615112 -400.28295898 276.8371582 C-395.45468226 272.37956621 -390.65282234 267.89391006 -385.85205078 263.40673828 C-381.83627905 259.65531151 -377.80743802 255.91865703 -373.765625 252.1953125 C-367.20705913 246.15224951 -360.68817597 240.0671557 -354.17285156 233.97753906 C-350.41554543 230.46648751 -346.6552521 226.95863554 -342.89550781 223.45019531 C-339.74444361 220.50953081 -336.59412739 217.56807303 -333.4453125 214.625 C-327.04235254 208.64190626 -320.62705562 202.67316283 -314.18139648 196.73608398 C-310.00514666 192.88623317 -305.85190442 189.01223165 -301.703125 185.1328125 C-296.24492898 180.03043471 -290.75796905 174.96190181 -285.2421875 169.921875 C-282.55477283 167.46455336 -279.88254067 164.99112682 -277.21142578 162.51611328 C-272.66748032 158.3071088 -268.09896708 154.14609362 -263.4140625 150.09375 C-260.53166362 147.54675753 -257.71227569 144.93424426 -254.890625 142.3203125 C-247.46091499 135.43817864 -239.95824359 128.64640763 -232.31640625 122 C-230.00473703 119.96573109 -227.7303107 117.8930894 -225.453125 115.8203125 C-221.99032418 112.69108423 -218.45883497 109.69030901 -214.828125 106.7578125 C-211.02474997 103.68194662 -207.36479848 100.50778084 -203.765625 97.1953125 C-199.31958648 93.10874092 -194.7474826 89.24265978 -190.046875 85.453125 C-187.27062441 83.19937101 -184.55114736 80.88794108 -181.828125 78.5703125 C-162.56803722 62.51190165 -141.90963247 48.78736629 -120.265625 36.1953125 C-119.44932617 35.71916504 -118.63302734 35.24301758 -117.79199219 34.75244141 C-104.71433722 27.18268234 -91.26326268 20.87536837 -77.265625 15.1953125 C-76.03030029 14.69257812 -76.03030029 14.69257812 -74.77001953 14.1796875 C-61.93365716 9.02931148 -48.75344125 5.23598979 -35.265625 2.1953125 C-34.49091354 2.01254257 -33.71620209 1.82977264 -32.91801453 1.64146423 C-22.06433848 -0.54614329 -11.01655511 -0.05403614 0 0 Z " fill="#FF8C41" transform="translate(841.265625,44.8046875)"/>
<path d="M0 0 C0.98613281 -0.00014603 1.97226562 -0.00029205 2.98828125 -0.0004425 C6.22927087 0.00025099 9.47020213 0.00801694 12.71118164 0.01586914 C14.96562163 0.01773532 17.22006202 0.01915828 19.47450256 0.02015686 C25.39443084 0.02396627 31.31433439 0.03378307 37.23425293 0.04486084 C43.28059556 0.05510888 49.3269422 0.05966174 55.37329102 0.06469727 C67.22681747 0.07540678 79.08032562 0.09246424 90.93383789 0.11352539 C87.80029317 2.64318065 84.63608271 5.05769002 81.33032227 7.35913086 C64.1167201 19.36438883 48.16351142 33.25816381 32.76977539 47.49633789 C29.17669995 50.8122615 25.53828637 54.07588783 21.89477539 57.33618164 C20.5429702 58.5614234 19.22391437 59.82344891 17.93383789 61.11352539 C15.00654914 61.46588422 12.12184524 61.71993715 9.18383789 61.92602539 C-15.15148245 64.05498024 -38.5965705 71.42923394 -60.07250977 83.03637695 C-62.19056886 84.18074099 -64.32157846 85.29873151 -66.45288086 86.41821289 C-81.46924765 94.4205792 -95.12471468 104.07360305 -108.06616211 115.11352539 C-109.19722021 116.05937903 -110.32875853 117.00465863 -111.46069336 117.94946289 C-118.07617944 123.50668754 -124.37252152 129.22542542 -130.37084961 135.44555664 C-133.13588749 138.18254341 -136.01647389 140.71778702 -138.95581055 143.26367188 C-142.46529006 146.33994747 -145.85907457 149.53658336 -149.25366211 152.73852539 C-150.3556897 153.77577759 -150.3556897 153.77577759 -151.47998047 154.83398438 C-156.6180938 159.69113762 -161.66636514 164.62721397 -166.60400391 169.68823242 C-169.22584651 172.35691754 -171.91660016 174.8731962 -174.75927734 177.30664062 C-179.0270402 181.02577761 -183.02666645 184.96280479 -187.00366211 188.98852539 C-187.72803467 189.71668457 -188.45240723 190.44484375 -189.19873047 191.19506836 C-191.49034514 193.49878185 -193.77866863 195.80572013 -196.06616211 198.11352539 C-199.08401292 201.15817318 -202.10529627 204.19935506 -205.12866211 207.23852539 C-205.80598389 207.92414551 -206.48330566 208.60976563 -207.18115234 209.31616211 C-211.06101039 213.21560816 -215.04255708 216.9232206 -219.22595215 220.49597168 C-222.49878184 223.37280526 -225.51666983 226.50393479 -228.56616211 229.61352539 C-237.56620915 238.7007266 -237.56620915 238.7007266 -241.90559387 242.17279053 C-244.22577017 244.1695244 -244.22577017 244.1695244 -246.53617859 247.02081299 C-251.74791098 252.9417917 -256.27726767 256.70262473 -264.33204365 257.39092636 C-269.05155896 257.54183597 -273.74263035 257.43869025 -278.46069336 257.28540039 C-280.50472494 257.26297502 -282.54882172 257.24591422 -284.59294128 257.23394775 C-289.93265816 257.1884687 -295.26835943 257.07091111 -300.60650635 256.9375 C-306.06971931 256.8139915 -311.53359142 256.75977877 -316.99780273 256.69946289 C-327.68900525 256.57136958 -338.37724781 256.36699812 -349.06616211 256.11352539 C-347.62412493 253.09472003 -346.2618938 251.10285515 -343.79272461 248.82836914 C-342.81154663 247.91692139 -342.81154663 247.91692139 -341.81054688 246.98706055 C-341.1111499 246.34816895 -340.41175293 245.70927734 -339.69116211 245.05102539 C-338.97307373 244.38635254 -338.25498535 243.72167969 -337.51513672 243.03686523 C-332.2818254 238.19993752 -327.0071751 233.40783223 -321.74194336 228.60571289 C-318.53335564 225.61727644 -315.44443801 222.52849319 -312.39428711 219.37915039 C-310.47368435 217.51010744 -308.52223976 215.77575077 -306.48803711 214.03540039 C-301.07684483 209.33799288 -296.09345454 204.21258747 -291.06616211 199.11352539 C-289.17342341 197.19376595 -287.27709453 195.27765285 -285.37866211 193.36352539 C-284.54979492 192.52305664 -283.72092773 191.68258789 -282.86694336 190.81665039 C-280.69389432 188.71937015 -278.50018117 186.73480987 -276.21655273 184.76391602 C-272.07363804 181.16965759 -268.19984271 177.35847992 -264.34741211 173.45727539 C-263.6452356 172.75131226 -262.94305908 172.04534912 -262.21960449 171.31799316 C-259.99931608 169.08561181 -257.78232256 166.85000428 -255.56616211 164.61352539 C-252.64206732 161.66262161 -249.71453154 158.71519336 -246.78491211 155.76977539 C-246.12946411 155.10602905 -245.47401611 154.44228271 -244.79870605 153.75842285 C-240.94270638 149.88234112 -236.96511293 146.22037953 -232.8260498 142.64855957 C-230.82222747 140.90075726 -228.92735759 139.07461096 -227.06616211 137.17602539 C-226.40616211 136.50829102 -225.74616211 135.84055664 -225.06616211 135.15258789 C-224.40616211 134.47969727 -223.74616211 133.80680664 -223.06616211 133.11352539 C-218.46609651 128.42361476 -213.79463408 123.92896707 -208.81616211 119.64086914 C-206.8036524 117.88441535 -204.92124316 116.03485934 -203.06616211 114.11352539 C-200.61952774 111.6338921 -198.14508437 109.25912163 -195.50366211 106.98852539 C-191.46259968 103.51337111 -187.57847108 99.88326859 -183.69116211 96.23852539 C-175.28877221 88.37335948 -166.84885242 80.64855355 -157.89038086 73.41430664 C-156.02112692 71.89149811 -154.16905655 70.34732794 -152.33569336 68.78149414 C-112.13279499 34.45653678 -54.31043036 -0.21241159 0 0 Z " fill="#FF8C41" transform="translate(505.066162109375,90.886474609375)"/>
<path d="M0 0 C15.35378652 12.20578331 26.83614696 30.29144763 29.77734375 49.9375 C32.01325545 74.93070476 26.27544979 96.61829512 10.0625 116.125 C-2.95279172 131.34202201 -22.17731641 140.85911118 -41.9375 143.125 C-65.92454264 144.80125987 -86.90041798 137.37991362 -105.125 121.875 C-121.40019321 106.61700637 -130.46713245 85.86881758 -131.1875 63.6875 C-131.04541501 51.19980831 -128.47624147 39.32981033 -122.9375 28.125 C-122.53015625 27.238125 -122.1228125 26.35125 -121.703125 25.4375 C-112.2499605 6.30874361 -95.12436405 -6.99835118 -75.30078125 -14.1953125 C-49.13725826 -21.88572111 -21.56284033 -16.32074631 0 0 Z " fill="#FF8C41" transform="translate(1663.9375,598.875)"/>
</svg>
