<?xml version="1.0" encoding="UTF-8"?>
<svg version="1.1" xmlns="http://www.w3.org/2000/svg" width="150" height="150">
<path d="M0 0 C5.73799264 1.50188551 8.67677261 4.73735498 11.84423828 9.65942383 C13.97135706 13.87820942 15.77310005 18.10248612 17.29394531 22.57568359 C18.20571814 25.0871039 19.22718199 27.05582487 20.67529297 29.28222656 C22.31201172 32.37988281 22.31201172 32.37988281 22.32373047 35.33300781 C21.02658177 39.2394788 19.21049391 42.59357379 17.12451172 46.12988281 C16.72031006 46.83145508 16.3161084 47.53302734 15.8996582 48.25585938 C13.16002721 52.99344427 10.36573368 57.69974332 7.50341797 62.36425781 C6.34100856 64.33082587 5.32316692 66.33250025 4.31201172 68.37988281 C-29.30913932 72.19324588 -29.30913932 72.19324588 -37.82861328 66.15332031 C-42.55154108 60.55063145 -45.22078441 54.1536691 -47.58740234 47.27441406 C-48.89986417 43.82265111 -50.67554572 41.03723335 -52.86328125 38.08105469 C-53.68798828 36.37988281 -53.68798828 36.37988281 -53.41479492 34.34155273 C-52.09861073 30.78913756 -50.12666398 27.58889997 -48.11791992 24.38720703 C-45.94364395 20.85927331 -44.40590987 17.68743459 -43.30517578 13.68066406 C-37.49127449 -4.12659 -15.75358859 -2.97006132 0 0 Z M-35.50439453 15.61816406 C-36.60821544 17.85150546 -37.67266348 20.10494327 -38.68798828 22.37988281 C-39.64570622 24.05896634 -40.61976156 25.72910757 -41.62548828 27.37988281 C-43.35578871 30.3829805 -44.33867917 32.91109693 -44.68798828 36.37988281 C-43.66298286 39.13580735 -43.66298286 39.13580735 -41.97705078 41.86425781 C-41.39181641 42.88132813 -40.80658203 43.89839844 -40.20361328 44.94628906 C-39.57970703 45.996875 -38.95580078 47.04746094 -38.31298828 48.12988281 C-37.69681641 49.1959375 -37.08064453 50.26199219 -36.44580078 51.36035156 C-33.93151307 56.13479093 -33.93151307 56.13479093 -30.68798828 60.37988281 C-26.49343862 60.85590176 -22.2848571 61.06326248 -18.06982422 61.26708984 C-16.65491008 61.34195131 -15.2406862 61.43134958 -13.82763672 61.53564453 C-5.91630057 62.44836337 -5.91630057 62.44836337 1.27270508 60.01074219 C2.60276592 58.18374925 3.46671182 56.47085957 4.31201172 54.37988281 C5.13378906 52.97222656 5.13378906 52.97222656 5.97216797 51.53613281 C6.43494141 50.65957031 6.89771484 49.78300781 7.37451172 48.87988281 C9.06930979 45.67469476 10.81062888 42.56698053 12.74951172 39.50488281 C14.5497315 35.90444324 14.41100049 35.11805668 13.31201172 31.37988281 C12.13103581 28.96271584 12.13103581 28.96271584 10.62451172 26.58691406 C10.09083984 25.70970703 9.55716797 24.8325 9.00732422 23.92871094 C8.44787109 23.02572266 7.88841797 22.12273437 7.31201172 21.19238281 C6.2074417 19.3866399 5.10325581 17.58066194 3.99951172 15.77441406 C3.2628125 14.58102417 3.2628125 14.58102417 2.51123047 13.36352539 C1.31201172 11.37988281 1.31201172 11.37988281 0.31201172 9.37988281 C-3.95570532 9.05604832 -8.21678859 8.821686 -12.49316406 8.66577148 C-13.94332372 8.60076433 -15.39264275 8.5122992 -16.83984375 8.39916992 C-25.02693735 7.77568691 -31.03482043 7.74077688 -35.50439453 15.61816406 Z " fill="#DC7615" transform="translate(62.68798828125,75.6201171875)"/>
<path d="M0 0 C1.69838167 -0.01655058 3.39669393 -0.04382919 5.09472656 -0.08203125 C7.54683456 -0.13689893 9.99731139 -0.15868748 12.44995117 -0.17333984 C13.20532669 -0.19600922 13.96070221 -0.21867859 14.7389679 -0.24203491 C18.64134942 -0.2264561 20.49158843 0.15192995 23.58911133 2.59423828 C25.47430724 5.00640009 27.05917136 7.27200082 28.49682617 9.96728516 C28.95895508 10.82193359 29.42108398 11.67658203 29.8972168 12.55712891 C30.36192383 13.43755859 30.82663086 14.31798828 31.30541992 15.22509766 C32.24377416 16.97273402 33.18256835 18.72013425 34.12182617 20.46728516 C34.56284668 21.30227539 35.00386719 22.13726562 35.45825195 22.99755859 C36.61379181 25.11363272 37.86013097 27.13207602 39.14526367 29.17041016 C40.74291992 32.35009766 40.74291992 32.35009766 40.74682617 34.85400391 C39.3941251 38.21733459 37.60846213 41.23250868 35.68041992 44.28759766 C33.18854514 48.25344873 30.7734892 52.15983271 28.78979492 56.40869141 C24.43911627 65.55188761 24.43911627 65.55188761 20.41870117 67.44384766 C17.12237505 67.79032281 14.05516138 67.57178311 10.74291992 67.35009766 C8.75327571 67.35147362 6.76361162 67.36855206 4.77416992 67.39697266 C0.50296091 67.45158348 -3.76672752 67.49586681 -8.03833008 67.48291016 C-8.94647461 67.48178223 -9.85461914 67.4806543 -10.7902832 67.47949219 C-13.11753519 67.35741741 -15.05756413 67.11421719 -17.25708008 66.35009766 C-18.60864258 64.44384766 -18.60864258 64.44384766 -19.88208008 61.85009766 C-22.95969873 55.83690429 -26.34762171 50.0622378 -29.82983398 44.27783203 C-34.46972402 36.4887362 -34.46972402 36.4887362 -35.25708008 33.35009766 C-34.56176758 31.19384766 -34.56176758 31.19384766 -33.13208008 28.85009766 C-32.30063477 27.44630859 -32.30063477 27.44630859 -31.45239258 26.01416016 C-31.11755859 25.46147461 -30.78272461 24.90878906 -30.43774414 24.33935547 C-28.99907086 21.91538733 -27.62456418 19.45900667 -26.24926758 16.99853516 C-25.16885575 15.07387782 -24.08812351 13.14940031 -23.00708008 11.22509766 C-22.4758252 10.27570312 -21.94457031 9.32630859 -21.3972168 8.34814453 C-20.89206543 7.45933594 -20.38691406 6.57052734 -19.86645508 5.65478516 C-19.41238281 4.85024902 -18.95831055 4.04571289 -18.49047852 3.21679688 C-15.16400948 -1.817681 -5.49474097 0.03925952 0 0 Z M-12.25708008 7.35009766 C-14.19583008 10.56759766 -16.13458008 13.78509766 -18.13208008 17.10009766 C-18.74035645 18.10782227 -19.34863281 19.11554687 -19.9753418 20.15380859 C-20.4576123 20.95592773 -20.93988281 21.75804687 -21.43676758 22.58447266 C-21.92902832 23.40141602 -22.42128906 24.21835938 -22.9284668 25.06005859 C-25.52354562 29.15495549 -25.52354562 29.15495549 -26.05004883 33.77978516 C-25.18059722 36.59800762 -24.02736687 38.91153558 -22.56958008 41.47509766 C-20.87944703 44.45102571 -19.22709567 47.41036782 -17.70239258 50.47509766 C-17.20481445 51.46509766 -16.70723633 52.45509766 -16.19458008 53.47509766 C-15.74985352 54.38517578 -15.30512695 55.29525391 -14.84692383 56.23291016 C-13.44231154 58.49983004 -13.44231154 58.49983004 -11.12036133 59.14697266 C-4.17090912 59.63997609 2.78208739 59.4734131 9.74291992 59.35009766 C10.74581055 59.34494141 11.74870117 59.33978516 12.78198242 59.33447266 C16.56065056 59.15754505 18.33078226 58.7975614 20.93041992 55.97509766 C21.56211883 54.78092711 22.16163738 53.56960469 22.74291992 52.35009766 C23.7373795 50.51375312 24.73785641 48.68065999 25.74291992 46.85009766 C26.24952148 45.89876953 26.75612305 44.94744141 27.27807617 43.96728516 C28.47402463 41.83052391 29.71785554 39.92855735 31.18041992 37.97509766 C32.9320586 35.51880649 32.9320586 35.51880649 32.80541992 32.97509766 C31.57468543 29.9344595 30.00186996 27.34654874 28.21166992 24.60400391 C26.60252049 22.13464428 25.07345039 19.62642778 23.55541992 17.10009766 C22.82258789 15.88580078 22.82258789 15.88580078 22.07495117 14.64697266 C20.88362267 12.59271706 19.80492083 10.47409948 18.74291992 8.35009766 C8.51291992 8.02009766 -1.71708008 7.69009766 -12.25708008 7.35009766 Z " fill="#BE6F1C" transform="translate(105.257080078125,43.64990234375)"/>
<path d="M0 0 C1.2148407 -0.00430527 1.2148407 -0.00430527 2.45422363 -0.00869751 C4.16561584 -0.01073792 5.87703138 -0.00520959 7.58837891 0.00732422 C10.2091889 0.02337893 12.82845677 0.00747556 15.44921875 -0.01171875 C17.11198257 -0.00973631 18.77474544 -0.00589263 20.4375 0 C21.22193481 -0.00607269 22.00636963 -0.01214539 22.8145752 -0.0184021 C28.1910743 0.05116375 28.1910743 0.05116375 30.546875 1.6015625 C32.03322979 3.88063984 33.42609759 6.16811861 34.75 8.546875 C35.59498047 10.05507813 35.59498047 10.05507813 36.45703125 11.59375 C37.03839844 12.64304687 37.61976562 13.69234375 38.21875 14.7734375 C39.37449136 16.84403399 40.53072467 18.91435598 41.6875 20.984375 C42.45223633 22.36181885 42.45223633 22.36181885 43.23242188 23.76708984 C44.67460954 26.42663741 44.67460954 26.42663741 46.47070312 28.86181641 C48.12246716 32.21898158 47.74802197 33.83746543 46.71875 37.3984375 C45.36767578 40.1875 45.36767578 40.1875 43.6640625 43.0234375 C43.04917969 44.05984375 42.43429688 45.09625 41.80078125 46.1640625 C41.15496094 47.23140625 40.50914063 48.29875 39.84375 49.3984375 C38.57393563 51.52249063 37.30565693 53.64746272 36.0390625 55.7734375 C35.47461426 56.70929688 34.91016602 57.64515625 34.32861328 58.609375 C32.66823291 61.48595756 31.17513883 64.41413337 29.71875 67.3984375 C24.38029426 67.52211857 19.04267376 67.61281359 13.703125 67.6730957 C11.88722201 67.6982265 10.07142004 67.73233711 8.25585938 67.77563477 C5.64427777 67.83635261 3.03403406 67.86466031 0.421875 67.88671875 C-0.38868347 67.91252518 -1.19924194 67.9383316 -2.03436279 67.96492004 C-5.88279292 67.96683116 -7.79519366 67.85744052 -10.64550781 65.16577148 C-11.18530273 64.25255127 -11.72509766 63.33933105 -12.28125 62.3984375 C-13.01988281 61.23393066 -13.01988281 61.23393066 -13.7734375 60.04589844 C-14.22976562 59.24958008 -14.68609375 58.45326172 -15.15625 57.6328125 C-15.66671875 56.74207031 -16.1771875 55.85132813 -16.703125 54.93359375 C-17.22390625 54.01449219 -17.7446875 53.09539063 -18.28125 52.1484375 C-18.80203125 51.24480469 -19.3228125 50.34117188 -19.859375 49.41015625 C-21.37046514 46.75811673 -22.83480448 44.0862036 -24.28125 41.3984375 C-24.96320435 40.17846069 -24.96320435 40.17846069 -25.65893555 38.93383789 C-26.78299792 36.74649187 -27.70008385 34.78780567 -28.28125 32.3984375 C-27.23828125 29.23828125 -27.23828125 29.23828125 -25.09375 26.3359375 C-24.32141695 25.23594295 -23.55337744 24.1329246 -22.7890625 23.02734375 C-22.37817383 22.44871582 -21.96728516 21.87008789 -21.54394531 21.27392578 C-18.84273705 17.26180631 -16.64232836 12.94045413 -14.34106445 8.69116211 C-10.29729572 1.3600591 -8.42789232 -0.06524443 0 0 Z M20.15942383 7.09350586 C11.64925508 6.15864021 2.86494507 5.34985431 -5.28125 8.3984375 C-12.5528593 14.91781135 -16.63765357 24.49451795 -20.28125 33.3984375 C-19.80075195 34.21634766 -19.80075195 34.21634766 -19.31054688 35.05078125 C-17.07368545 38.95112085 -15.09314513 42.70479961 -13.625 46.9609375 C-11.68802912 51.93540609 -9.74901394 56.25399006 -5.28125 59.3984375 C3.47906037 61.91328951 14.81127537 62.30213998 23.71875 60.3984375 C26.78872626 57.96979305 28.6017418 55.21097139 30.48046875 51.80859375 C30.95935547 50.94169922 31.43824219 50.07480469 31.93164062 49.18164062 C32.41826172 48.28380859 32.90488281 47.38597656 33.40625 46.4609375 C34.15358398 45.11999023 34.15358398 45.11999023 34.91601562 43.75195312 C38.21294083 37.88861042 38.21294083 37.88861042 39.71875 31.3984375 C38.61489708 29.72593307 37.49005196 28.06245832 36.25 26.48828125 C34.4606898 24.04623799 33.07755896 21.50814337 31.65625 18.8359375 C29.52430298 14.8570338 27.44534126 11.00143309 24.71875 7.3984375 C22.71875 7.3984375 22.71875 7.3984375 20.15942383 7.09350586 Z " fill="#C97922" transform="translate(37.28125,8.6015625)"/>
<path d="M0 0 C33.63085033 -3.81446318 33.63085033 -3.81446318 42.15673828 2.24267578 C46.89872944 7.86099843 49.63100745 14.28112172 51.98193359 21.19580078 C52.89370642 23.70722109 53.91517027 25.67594206 55.36328125 27.90234375 C57 31 57 31 57.01953125 33.93359375 C55.68594374 37.94457533 53.8128505 41.42049939 51.6875 45.0625 C51.29626953 45.75666016 50.90503906 46.45082031 50.50195312 47.16601562 C48.27659964 51.05208067 45.91466976 54.57843115 43 58 C42.67 56.35 42.34 54.7 42 53 C38.75150023 54.72226496 38.75150023 54.72226496 38 58 C37.34 58 36.68 58 36 58 C37.37541086 54.37153517 38.99773327 51.01964296 40.875 47.625 C41.39964844 46.6659375 41.92429688 45.706875 42.46484375 44.71875 C43.73194976 42.47471493 45.06561294 40.304723 46.4375 38.125 C48.2375916 34.5248168 48.10196981 33.73758726 47 30 C45.80294479 27.58214529 45.80294479 27.58214529 44.27734375 25.20703125 C43.73916016 24.32982422 43.20097656 23.45261719 42.64648438 22.54882812 C42.08251953 21.64583984 41.51855469 20.74285156 40.9375 19.8125 C39.81772821 18.00891752 38.70164255 16.2030395 37.58984375 14.39453125 C37.09347412 13.59893799 36.59710449 12.80334473 36.08569336 11.98364258 C35 10 35 10 35 8 C24.77 8 14.54 8 4 8 C4 7.67 4 7.34 4 7 C8.34117362 6.80724519 12.68263202 6.62860407 17.02490234 6.46289062 C18.50129674 6.40457353 19.97754544 6.34243537 21.45361328 6.27636719 C23.57818061 6.18194197 25.70289674 6.10137487 27.828125 6.0234375 C29.1059082 5.97106934 30.38369141 5.91870117 31.70019531 5.86474609 C34.82230558 5.99271658 36.41403969 6.33108729 39 8 C38.34 6.68 37.68 5.36 37 4 C37.66 4 38.32 4 39 4 C38.505 3.01 38.505 3.01 38 2 C25.46 1.67 12.92 1.34 0 1 C0 0.67 0 0.34 0 0 Z " fill="#CA7218" transform="translate(28,77)"/>
<path d="M0 0 C12.87 0 25.74 0 39 0 C39 1.32 39 2.64 39 4 C40.41977909 6.22743787 40.41977909 6.22743787 42 8 C39 8 39 8 36 6 C32.6997236 5.7225435 32.6997236 5.7225435 28.92578125 5.8046875 C27.90003242 5.80893234 27.90003242 5.80893234 26.8535614 5.81326294 C24.67302835 5.82444316 22.49290855 5.84954309 20.3125 5.875 C18.83268823 5.88503262 17.35287001 5.89415798 15.87304688 5.90234375 C12.248564 5.92437519 8.62432234 5.95888998 5 6 C4.70722168 6.91620117 4.41444336 7.83240234 4.11279297 8.77636719 C2.81061787 12.54861817 1.09326904 15.79638295 -0.875 19.25 C-1.21402344 19.87390625 -1.55304687 20.4978125 -1.90234375 21.140625 C-3.88405193 24.63687061 -5.3142426 26.43634535 -9 28 C-9.33 28.99 -9.66 29.98 -10 31 C-10.66 31 -11.32 31 -12 31 C-12.33 32.32 -12.66 33.64 -13 35 C-13.66 35 -14.32 35 -15 35 C-15.1875 32.6875 -15.1875 32.6875 -15 30 C-14.5359375 29.56945312 -14.071875 29.13890625 -13.59375 28.6953125 C-11.42316719 26.38640824 -11.08625518 24.24855097 -10.3125 21.1875 C-8 14 -8 14 0 0 Z " fill="#B86F1F" transform="translate(27,78)"/>
<path d="M0 0 C5.33848672 -0.09894543 10.67643869 -0.17150414 16.015625 -0.21972656 C17.8314748 -0.23983061 19.64725995 -0.26711835 21.46289062 -0.30175781 C24.07438105 -0.35033039 26.68501498 -0.37298027 29.296875 -0.390625 C30.10743347 -0.41127014 30.91799194 -0.43191528 31.75311279 -0.45318604 C35.35555153 -0.4546172 37.5065429 -0.37333304 40.42602539 1.83544922 C42.42239708 4.58088608 44.08031457 7.38375249 45.6875 10.375 C46.28949219 11.47585937 46.89148438 12.57671875 47.51171875 13.7109375 C48.9507397 16.89113604 49.46057578 19.58196613 50 23 C50.66 23.33 51.32 23.66 52 24 C53.96808719 27.06146896 54.19990835 29.40164967 54 33 C53.34 33 52.68 33 52 33 C52 33.99 52 34.98 52 36 C51.34 36 50.68 36 50 36 C49.67 36.99 49.34 37.98 49 39 C49 38.34 49 37.68 49 37 C45.57421051 40.17539556 45.57421051 40.17539556 43 44 C42.34 44 41.68 44 41 44 C42.00913065 40.46804274 43.03565507 37.9500829 45.1875 34.9375 C47.19279326 32.23809508 47.19279326 32.23809508 47.0625 29.625 C45.5038287 25.77416502 43.27229314 22.46569909 41 19 C39.90412465 17.299685 38.8209603 15.59111711 37.75 13.875 C37.24984375 13.08867188 36.7496875 12.30234375 36.234375 11.4921875 C34.82993447 8.65663984 34.46302014 6.11442534 34 3 C29.49746184 3.11829766 24.99514221 3.24254934 20.49291992 3.37231445 C18.96138982 3.41561833 17.42981285 3.45729667 15.89819336 3.49731445 C13.69630818 3.55512732 11.49465789 3.61878969 9.29296875 3.68359375 C8.60849167 3.70030624 7.92401459 3.71701874 7.21879578 3.73423767 C4.22879896 3.8273555 1.85937689 4.04687437 -1 5 C-1 5.66 -1 6.32 -1 7 C-1.66 7 -2.32 7 -3 7 C-3 6.01 -3 5.02 -3 4 C-2.34 4 -1.68 4 -1 4 C-0.67 2.68 -0.34 1.36 0 0 Z " fill="#F17913" transform="translate(90,47)"/>
<path d="M0 0 C3.33576209 2.99068325 5.3746531 5.80831589 7 10 C6.64710665 14.63573533 4.36061819 18.09793589 1.9375 21.9375 C-0.55437478 25.90335107 -2.96943072 29.80973505 -4.953125 34.05859375 C-9.30380365 43.20178995 -9.30380365 43.20178995 -13.32421875 45.09375 C-16.62054487 45.44022515 -19.68775854 45.22168545 -23 45 C-24.98964421 45.00137596 -26.97930831 45.0184544 -28.96875 45.046875 C-33.23995902 45.10148583 -37.50964744 45.14576915 -41.78125 45.1328125 C-42.68939453 45.13168457 -43.59753906 45.13055664 -44.53320312 45.12939453 C-46.88572848 45.00599405 -48.79626562 44.83272258 -51 44 C-52.8125 41.0625 -52.8125 41.0625 -54 38 C-53.67 37.34 -53.34 36.68 -53 36 C-52.2275293 37.46578491 -52.2275293 37.46578491 -51.43945312 38.96118164 C-49.28951039 42.29352441 -49.28951039 42.29352441 -45.76367188 42.69702148 C-43.88518555 42.65943726 -43.88518555 42.65943726 -41.96875 42.62109375 C-41.29581909 42.61497574 -40.62288818 42.60885773 -39.92956543 42.60255432 C-37.78483607 42.57567836 -35.64373976 42.50661405 -33.5 42.4375 C-32.05863096 42.41596528 -30.61722014 42.39705716 -29.17578125 42.38085938 C-21.46012895 42.53892511 -21.46012895 42.53892511 -14 41 C-13.505 40.01 -13.505 40.01 -13 39 C-23.89 39 -34.78 39 -46 39 C-46.495 37.515 -46.495 37.515 -47 36 C-46.35039307 36.00523682 -45.70078613 36.01047363 -45.03149414 36.01586914 C-42.04183957 36.03686503 -39.05220059 36.0497313 -36.0625 36.0625 C-35.04091797 36.07087891 -34.01933594 36.07925781 -32.96679688 36.08789062 C-23.93152293 36.1439569 -23.93152293 36.1439569 -15 35 C-13.03973044 33.06369774 -13.03973044 33.06369774 -12.1875 30.5 C-11.16796875 28.03125 -11.16796875 28.03125 -10 26 C-7.921875 25.3671875 -7.921875 25.3671875 -6 25 C-5.690625 24.21625 -5.38125 23.4325 -5.0625 22.625 C-3.70914468 19.28141628 -2.20139285 18.5206616 1 17 C1.66 17 2.32 17 3 17 C3 16.01 3 15.02 3 14 C3.66 14 4.32 14 5 14 C4.745504 12.51793505 4.47088238 11.03931385 4.1875 9.5625 C4.03667969 8.73878906 3.88585937 7.91507812 3.73046875 7.06640625 C3.48941406 6.38449219 3.24835938 5.70257813 3 5 C2.01 4.67 1.02 4.34 0 4 C0 2.68 0 1.36 0 0 Z " fill="#B36319" transform="translate(139,66)"/>
<path d="M0 0 C0.81272369 -0.00570007 1.62544739 -0.01140015 2.46279907 -0.01727295 C4.18612358 -0.02673734 5.9094663 -0.03326262 7.6328125 -0.03710938 C10.27115466 -0.04680916 12.90871609 -0.07781572 15.546875 -0.109375 C17.21874536 -0.11590535 18.89062131 -0.1211557 20.5625 -0.125 C21.35320892 -0.1373468 22.14391785 -0.1496936 22.95858765 -0.16241455 C28.44162912 -0.14009684 28.44162912 -0.14009684 30.86181641 1.61816406 C31.20905762 2.14120117 31.55629883 2.66423828 31.9140625 3.203125 C32.501875 4.0384375 32.501875 4.0384375 33.1015625 4.890625 C34.32354789 8.36858341 34.03656072 11.52817849 33.9140625 15.203125 C31.9765625 14.453125 31.9765625 14.453125 29.9140625 13.203125 C29.2890625 11.140625 29.2890625 11.140625 28.9140625 9.203125 C28.2540625 8.873125 27.5940625 8.543125 26.9140625 8.203125 C26.9140625 7.543125 26.9140625 6.883125 26.9140625 6.203125 C9.5890625 6.698125 9.5890625 6.698125 -8.0859375 7.203125 C-8.7459375 8.853125 -9.4059375 10.503125 -10.0859375 12.203125 C-10.7459375 11.873125 -11.4059375 11.543125 -12.0859375 11.203125 C-11.6106787 9.55615896 -11.13061859 7.91057772 -10.6484375 6.265625 C-10.38160156 5.34910156 -10.11476563 4.43257812 -9.83984375 3.48828125 C-8.2565084 -1.31094766 -4.39115829 0.02348124 0 0 Z " fill="#D57215" transform="translate(37.0859375,8.796875)"/>
<path d="M0 0 C0.7891127 -0.0033284 1.5782254 -0.0066568 2.39125061 -0.01008606 C4.06152767 -0.01515223 5.73181487 -0.01749448 7.40209961 -0.01733398 C9.9589911 -0.01951957 12.51545057 -0.03767571 15.07226562 -0.05664062 C16.69400894 -0.05957477 18.3157543 -0.06155943 19.9375 -0.0625 C21.08604713 -0.07327827 21.08604713 -0.07327827 22.25779724 -0.08427429 C26.05843398 -0.06789882 27.7942896 0.00739099 31.03515625 2.16796875 C30.70515625 2.82796875 30.37515625 3.48796875 30.03515625 4.16796875 C17.49515625 4.16796875 4.95515625 4.16796875 -7.96484375 4.16796875 C-8.29484375 5.15796875 -8.62484375 6.14796875 -8.96484375 7.16796875 C-9.62484375 7.16796875 -10.28484375 7.16796875 -10.96484375 7.16796875 C-10.96484375 8.15796875 -10.96484375 9.14796875 -10.96484375 10.16796875 C-10.30484375 10.16796875 -9.64484375 10.16796875 -8.96484375 10.16796875 C-8.96484375 9.50796875 -8.96484375 8.84796875 -8.96484375 8.16796875 C-5.37040192 5.7716742 -2.81622723 5.91015544 1.328125 5.97265625 C2.03415359 5.97548615 2.74018219 5.97831604 3.46760559 5.98123169 C5.71946258 5.99241411 7.97091977 6.01751455 10.22265625 6.04296875 C11.75064529 6.05300108 13.27864058 6.06212649 14.80664062 6.0703125 C18.54963288 6.09234703 22.29232681 6.12686308 26.03515625 6.16796875 C26.03515625 6.82796875 26.03515625 7.48796875 26.03515625 8.16796875 C15.80515625 8.16796875 5.57515625 8.16796875 -4.96484375 8.16796875 C-5.62484375 9.48796875 -6.28484375 10.80796875 -6.96484375 12.16796875 C-8.5859375 13.66015625 -8.5859375 13.66015625 -10.40234375 15.04296875 C-13.66103455 17.70423291 -15.36668371 20.21957335 -16.96484375 24.16796875 C-17.62484375 24.16796875 -18.28484375 24.16796875 -18.96484375 24.16796875 C-19.54686255 17.83227839 -17.81801807 14.1699585 -14.58984375 8.79296875 C-14.17734375 8.06980469 -13.76484375 7.34664062 -13.33984375 6.6015625 C-9.50095999 0.00115913 -7.24325645 0.01049919 0 0 Z " fill="#AA6D25" transform="translate(97.96484375,43.83203125)"/>
<path d="M0 0 C-0.33 1.32 -0.66 2.64 -1 4 C-1.66 4 -2.32 4 -3 4 C-3.04898437 4.60328125 -3.09796875 5.2065625 -3.1484375 5.828125 C-3.22320312 6.62734375 -3.29796875 7.4265625 -3.375 8.25 C-3.44460937 9.03890625 -3.51421875 9.8278125 -3.5859375 10.640625 C-4 13 -4 13 -5.28125 14.90625 C-5.5184375 15.5971875 -5.755625 16.288125 -6 17 C-4.80206547 19.27547363 -3.61001472 21.17922279 -2.125 23.25 C1.32508476 28.37817247 2.97463814 31.78668189 2 38 C1.01 38 0.02 38 -1 38 C-1 36.68 -1 35.36 -1 34 C-1.99 33.67 -2.98 33.34 -4 33 C-6 30 -6 30 -6 26 C-6.7425 25.855625 -7.485 25.71125 -8.25 25.5625 C-11.83965364 23.52292407 -13.23639656 21.58012801 -14.8046875 17.7890625 C-15.22226988 11.82598607 -10.58321364 6.46779948 -7 2 C-4 0 -4 0 0 0 Z " fill="#F27810" transform="translate(24,26)"/>
<path d="M0 0 C0.66 0 1.32 0 2 0 C2.33 0.99 2.66 1.98 3 3 C3.66 3.33 4.32 3.66 5 4 C5 4.66 5 5.32 5 6 C15.56 5.67 26.12 5.34 37 5 C37.33 3.68 37.66 2.36 38 1 C39.32 1 40.64 1 42 1 C41.125 8.75 41.125 8.75 40 11 C27.46 11 14.92 11 2 11 C1.01 8.03 0.02 5.06 -1 2 C-0.67 1.34 -0.34 0.68 0 0 Z " fill="#CB6E17" transform="translate(27,65)"/>
<path d="M0 0 C1.60031344 3.20062687 0.03173691 5.72271806 -1 9 C0.2941742 7.77119784 0.2941742 7.77119784 2 5 C5.5062443 3.8312519 8.6477866 3.87485733 12.29296875 3.90234375 C13.35201164 3.90446617 13.35201164 3.90446617 14.43244934 3.90663147 C16.68417626 3.91222236 18.93580321 3.92477312 21.1875 3.9375 C22.71549335 3.94251618 24.24348827 3.94707888 25.77148438 3.95117188 C29.51436135 3.9621888 33.25716373 3.97944713 37 4 C37 4.66 37 5.32 37 6 C37.99 6.33 38.98 6.66 40 7 C41.203125 9.21484375 41.203125 9.21484375 42.25 11.9375 C42.60578125 12.83339844 42.9615625 13.72929687 43.328125 14.65234375 C44 17 44 17 43 19 C42.03874097 17.58531689 41.08111675 16.1681636 40.125 14.75 C39.59132812 13.96109375 39.05765625 13.1721875 38.5078125 12.359375 C37.18000092 10.28165947 36.08110463 8.21116493 35 6 C18.02220031 4.01446468 18.02220031 4.01446468 2.49951172 8.91210938 C-1.61205604 13.96390735 -4.0884437 19.8097406 -6 26 C-6.93423645 22.98968256 -7.04449911 22.13349732 -6 19 C-5.34 18.67 -4.68 18.34 -4 18 C-3.67 17.01 -3.34 16.02 -3 15 C-4.98 15.66 -6.96 16.32 -9 17 C-7.68925635 12.53817564 -5.92933989 9.00381243 -3.375 5.125 C-2.74335938 4.15820312 -2.11171875 3.19140625 -1.4609375 2.1953125 C-0.73777344 1.10863281 -0.73777344 1.10863281 0 0 Z " fill="#C06F1D" transform="translate(27,11)"/>
<path d="M0 0 C1.40253926 4.20761779 -0.09397469 6.11735584 -2 10 C-2.66 10.66 -3.32 11.32 -4 12 C-4.64767793 14.57061311 -4.64767793 14.57061311 -5 17 C-4.34 16.67 -3.68 16.34 -3 16 C-2.67 15.01 -2.34 14.02 -2 13 C-1.34 13 -0.68 13 0 13 C0.33 11.68 0.66 10.36 1 9 C1.66 9 2.32 9 3 9 C2.61521484 10.47533203 2.61521484 10.47533203 2.22265625 11.98046875 C1.51022949 16.96996904 3.85590174 20.21007803 6.4375 24.3125 C11 31.83079495 11 31.83079495 11 34 C10.34 34 9.68 34 9 34 C7.61767557 32.37373596 6.28062485 30.7074998 5 29 C5.33 31.97 5.66 34.94 6 38 C2.51127915 33.92051177 -0.09067028 29.60494848 -2.6875 24.9375 C-3.09033203 24.23044922 -3.49316406 23.52339844 -3.90820312 22.79492188 C-4.29298828 22.10849609 -4.67777344 21.42207031 -5.07421875 20.71484375 C-5.42057373 20.09730225 -5.76692871 19.47976074 -6.1237793 18.84350586 C-7.05145616 16.89173991 -7.6320571 15.12918877 -8 13 C-7.109375 11.2890625 -7.109375 11.2890625 -5.75 9.625 C-3.38538902 6.57537637 -1.62858201 3.51430855 0 0 Z " fill="#D5761A" transform="translate(17,96)"/>
<path d="M0 0 C12.54 0 25.08 0 38 0 C40.475 5.94 40.475 5.94 43 12 C43.66 12.99 44.32 13.98 45 15 C44.67 15.99 44.34 16.98 44 18 C38.33064516 12.62903226 38.33064516 12.62903226 37 9 C37 8.01 37 7.02 37 6 C36.01 5.67 35.02 5.34 34 5 C34 4.34 34 3.68 34 3 C29.49746184 3.11829766 24.99514221 3.24254934 20.49291992 3.37231445 C18.96138982 3.41561833 17.42981285 3.45729667 15.89819336 3.49731445 C13.69630818 3.55512732 11.49465789 3.61878969 9.29296875 3.68359375 C8.60849167 3.70030624 7.92401459 3.71701874 7.21879578 3.73423767 C4.22879896 3.8273555 1.85937689 4.04687437 -1 5 C-1 5.66 -1 6.32 -1 7 C-1.66 7 -2.32 7 -3 7 C-3 6.01 -3 5.02 -3 4 C-2.34 4 -1.68 4 -1 4 C-0.67 2.68 -0.34 1.36 0 0 Z " fill="#F27710" transform="translate(90,47)"/>
<path d="M0 0 C1.32 0.33 2.64 0.66 4 1 C4 1.99 4 2.98 4 4 C4.99 4.33 5.98 4.66 7 5 C7 5.66 7 6.32 7 7 C17.89 7 28.78 7 40 7 C39.67 7.99 39.34 8.98 39 10 C33.78126595 12.16562921 27.20719655 11.26416991 21.6184082 11.29516602 C20.16258057 11.30673702 18.70679702 11.32726909 17.2512207 11.35668945 C15.14505272 11.3992359 13.04013726 11.41550972 10.93359375 11.42578125 C9.67603271 11.44036377 8.41847168 11.45494629 7.12280273 11.4699707 C4 11 4 11 2.10961914 9.20776367 C0.59869073 6.20153142 0.31971084 3.32499273 0 0 Z " fill="#F87711" transform="translate(86,98)"/>
<path d="M0 0 C5.42553751 -0.29783371 10.84628268 -0.51485783 16.27807617 -0.65917969 C18.12266916 -0.71934528 19.9666939 -0.80111255 21.80932617 -0.90527344 C34.13564464 -1.58433608 34.13564464 -1.58433608 39 0 C42.7296735 3.52538778 44.54635669 7.10864627 46 12 C46 12.66 46 13.32 46 14 C45.34 14 44.68 14 44 14 C44 13.01 44 12.02 44 11 C42.68 11 41.36 11 40 11 C40.45375 11.53625 40.9075 12.0725 41.375 12.625 C43.25616161 15.37439005 44.19277218 17.77108873 45 21 C44.546875 23.1875 44.546875 23.1875 44 25 C42.49462965 22.54481265 40.99555574 20.0861548 39.5 17.625 C39.07074219 16.92632812 38.64148438 16.22765625 38.19921875 15.5078125 C35 10.2265625 35 10.2265625 35 8 C24.77 8 14.54 8 4 8 C4 7.67 4 7.34 4 7 C8.34117362 6.80724519 12.68263202 6.62860407 17.02490234 6.46289062 C18.50129674 6.40457353 19.97754544 6.34243537 21.45361328 6.27636719 C23.57818061 6.18194197 25.70289674 6.10137487 27.828125 6.0234375 C29.1059082 5.97106934 30.38369141 5.91870117 31.70019531 5.86474609 C34.82230558 5.99271658 36.41403969 6.33108729 39 8 C38.34 6.68 37.68 5.36 37 4 C37.66 4 38.32 4 39 4 C38.505 3.01 38.505 3.01 38 2 C25.46 1.67 12.92 1.34 0 1 C0 0.67 0 0.34 0 0 Z " fill="#9F6B26" transform="translate(28,77)"/>
<path d="M0 0 C5.09031755 -0.04936158 10.18049643 -0.08570105 15.27099609 -0.10986328 C17.00344265 -0.11993376 18.73587216 -0.13359089 20.46826172 -0.15087891 C22.95544639 -0.17508162 25.44240675 -0.18647239 27.9296875 -0.1953125 C28.70682098 -0.20563507 29.48395447 -0.21595764 30.28463745 -0.22659302 C32.19125493 -0.22699271 34.09731036 -0.1223214 36 0 C38 2 38 2 38 5 C38.66 5.66 39.32 6.32 40 7 C37 7 37 7 34 5 C31.39206609 4.7597883 28.88112855 4.62736305 26.26953125 4.5859375 C25.51911057 4.56657135 24.76868988 4.5472052 23.99552917 4.5272522 C21.60130133 4.46752541 19.20702523 4.42109935 16.8125 4.375 C15.1881302 4.3368138 13.56378052 4.29776169 11.93945312 4.2578125 C7.95979895 4.16182975 3.98004999 4.07777364 0 4 C0 4.99 0 5.98 0 7 C-0.66 7 -1.32 7 -2 7 C-1.34 4.69 -0.68 2.38 0 0 Z " fill="#F8780F" transform="translate(29,79)"/>
<path d="M0 0 C1.32 0.33 2.64 0.66 4 1 C4 1.99 4 2.98 4 4 C8.25477713 6.06644371 12.17182252 6.33590845 16.8203125 6.37109375 C17.56078827 6.38012222 18.30126404 6.3891507 19.06417847 6.39845276 C20.62233462 6.41290467 22.18055077 6.42182937 23.73876953 6.42553711 C26.12504797 6.43750024 28.50879279 6.48678252 30.89453125 6.53710938 C32.41144575 6.5465672 33.92837607 6.5538053 35.4453125 6.55859375 C36.15785187 6.57812607 36.87039124 6.59765839 37.60452271 6.61778259 C39.85976278 6.6526751 39.85976278 6.6526751 43 6 C44.89282394 3.57205842 44.89282394 3.57205842 46 1 C46.66 1 47.32 1 48 1 C46.80023567 4.08510827 45.49997444 7.05047042 44 10 C38.53756862 10.19809361 33.07723481 10.34307407 27.61206055 10.43945312 C25.7542682 10.47963212 23.89672804 10.53418925 22.03979492 10.60351562 C19.3657419 10.70083198 16.69503448 10.7459756 14.01953125 10.78125 C13.19226028 10.82254028 12.36498932 10.86383057 11.51264954 10.90637207 C9.0921112 10.90824617 7.28004679 10.82241085 5 10 C2.35839593 7.20996409 0 3.94366161 0 0 Z " fill="#A56920" transform="translate(23,134)"/>
<path d="M0 0 C0.99 0.33 1.98 0.66 3 1 C3.87890625 7.15234375 3.87890625 7.15234375 4 9 C3.67 9.33 3.34 9.66 3 10 C2.95875 10.928125 2.9175 11.85625 2.875 12.8125 C2.12651113 18.78793618 -1.53628683 24.20525295 -5 29 C-5.99 29.33 -6.98 29.66 -8 30 C-8 29.01 -8 28.02 -8 27 C-8.66 27 -9.32 27 -10 27 C-9.1875 24.5625 -9.1875 24.5625 -8 22 C-7.01 21.67 -6.02 21.34 -5 21 C-4.896875 20.34 -4.79375 19.68 -4.6875 19 C-4.11566157 16.50470505 -3.40531183 14.47148716 -2.4375 12.125 C-0.94448169 8.32393405 -0.83288758 5.09425439 -1 1 C-0.67 0.67 -0.34 0.34 0 0 Z " fill="#F5750D" transform="translate(78,36)"/>
<path d="M0 0 C0.7891127 -0.0033284 1.5782254 -0.0066568 2.39125061 -0.01008606 C4.06152767 -0.01515223 5.73181487 -0.01749448 7.40209961 -0.01733398 C9.9589911 -0.01951957 12.51545057 -0.03767571 15.07226562 -0.05664062 C16.69400894 -0.05957477 18.3157543 -0.06155943 19.9375 -0.0625 C21.08604713 -0.07327827 21.08604713 -0.07327827 22.25779724 -0.08427429 C26.05843398 -0.06789882 27.7942896 0.00739099 31.03515625 2.16796875 C30.70515625 2.82796875 30.37515625 3.48796875 30.03515625 4.16796875 C17.49515625 4.16796875 4.95515625 4.16796875 -7.96484375 4.16796875 C-8.29484375 5.15796875 -8.62484375 6.14796875 -8.96484375 7.16796875 C-9.62484375 6.83796875 -10.28484375 6.50796875 -10.96484375 6.16796875 C-10.58984375 3.73046875 -10.58984375 3.73046875 -9.96484375 1.16796875 C-6.8201458 -0.40438023 -3.4526734 0.00500469 0 0 Z " fill="#B27423" transform="translate(97.96484375,43.83203125)"/>
<path d="M0 0 C12.87 0 25.74 0 39 0 C39.495 0.99 39.495 0.99 40 2 C27.46 1.67 14.92 1.34 2 1 C1.67 2.65 1.34 4.3 1 6 C0.67 6.66 0.34 7.32 0 8 C0.66 8 1.32 8 2 8 C2 7.01 2 6.02 2 5 C10.91 5 19.82 5 29 5 C29 5.33 29 5.66 29 6 C21.08 6 13.16 6 5 6 C4.34 7.98 3.68 9.96 3 12 C2.01 12.495 2.01 12.495 1 13 C1 11.68 1 10.36 1 9 C-0.98 9.66 -2.96 10.32 -5 11 C-3.53447054 7.1670768 -1.85375622 3.70751245 0 0 Z " fill="#C07220" transform="translate(27,78)"/>
<path d="M0 0 C1.70884005 1.62339805 3.37446717 3.29319053 5 5 C5 5.66 5 6.32 5 7 C5.90492187 7.09087891 5.90492187 7.09087891 6.828125 7.18359375 C9.94689261 8.35593625 10.39414589 10.08715349 11.75 13.0625 C12.17796875 13.98160156 12.6059375 14.90070313 13.046875 15.84765625 C13.36140625 16.55792969 13.6759375 17.26820312 14 18 C13.34 18.33 12.68 18.66 12 19 C12 18.01 12 17.02 12 16 C11.01 16.33 10.02 16.66 9 17 C8.67 17.99 8.34 18.98 8 20 C2.64466943 15.77210744 1.8622489 11.62773407 1 5 C0.34 5 -0.32 5 -1 5 C-1.33 3.68 -1.66 2.36 -2 1 C-1.34 0.67 -0.68 0.34 0 0 Z " fill="#E27413" transform="translate(78,83)"/>
<path d="M0 0 C0.99 0.33 1.98 0.66 3 1 C4.03485877 3.31808364 5.0355414 5.65175298 6 8 C6.66 8.33 7.32 8.66 8 9 C9.125 11.0625 9.125 11.0625 10 13 C10.33 11.02 10.66 9.04 11 7 C13.47193291 9.96631949 15.25618453 12.51236907 17 16 C30.365 16.495 30.365 16.495 44 17 C44 17.33 44 17.66 44 18 C37.35204039 18.91299547 31.12531102 18.98938155 24.4375 18.5625 C23.52419922 18.51029297 22.61089844 18.45808594 21.66992188 18.40429688 C19.44612919 18.27622505 17.22298064 18.14136041 15 18 C14.67 16.68 14.34 15.36 14 14 C13.34 14.66 12.68 15.32 12 16 C12.32326553 19.59679066 12.32326553 19.59679066 13 23 C10.63213568 20.81695718 9.08120454 18.65023162 7.51953125 15.83984375 C7.07802734 15.04642578 6.63652344 14.25300781 6.18164062 13.43554688 C5.72982422 12.61119141 5.27800781 11.78683594 4.8125 10.9375 C4.11737305 9.69516602 4.11737305 9.69516602 3.40820312 8.42773438 C0 2.25883652 0 2.25883652 0 0 Z " fill="#91681F" transform="translate(15,51)"/>
<path d="M0 0 C10.56 0 21.12 0 32 0 C32 0.66 32 1.32 32 2 C32.99 2.33 33.98 2.66 35 3 C36.203125 5.21484375 36.203125 5.21484375 37.25 7.9375 C37.60578125 8.83339844 37.9615625 9.72929687 38.328125 10.65234375 C39 13 39 13 38 15 C37.03874097 13.58531689 36.08111675 12.1681636 35.125 10.75 C34.59132812 9.96109375 34.05765625 9.1721875 33.5078125 8.359375 C32 6 32 6 30 2 C14.655 2.495 14.655 2.495 -1 3 C-0.67 2.01 -0.34 1.02 0 0 Z " fill="#9A6827" transform="translate(32,15)"/>
<path d="M0 0 C3.12915801 2.6862618 4.7642676 5.95391929 6.6875 9.5625 C7.31011719 10.71878906 7.93273437 11.87507813 8.57421875 13.06640625 C10 16 10 16 10 18 C8.68 18.33 7.36 18.66 6 19 C6.33 20.32 6.66 21.64 7 23 C6.34 23.33 5.68 23.66 5 24 C3.81429483 21.86573069 2.62946597 19.73104582 1.44921875 17.59375 C0.48941965 15.87594245 -0.48701671 14.16731708 -1.48046875 12.46875 C-2.17076172 11.27765625 -2.17076172 11.27765625 -2.875 10.0625 C-3.30554688 9.33160156 -3.73609375 8.60070312 -4.1796875 7.84765625 C-4.45039062 7.23792969 -4.72109375 6.62820312 -5 6 C-4.67 5.34 -4.34 4.68 -4 4 C-0.61633741 5.6918313 0.23135751 9.42340148 1.78125 12.75 C2.79604539 15.13696534 2.79604539 15.13696534 5 16 C3.85975197 13.10552422 2.66681616 10.26955849 1.375 7.4375 C0 4 0 4 0 0 Z " fill="#AB681F" transform="translate(129,48)"/>
<path d="M0 0 C0.33 0.66 0.66 1.32 1 2 C0.11962891 3.97119141 0.11962891 3.97119141 -1.2734375 6.3515625 C-1.7684375 7.20234375 -2.2634375 8.053125 -2.7734375 8.9296875 C-3.30195312 9.81914063 -3.83046875 10.70859375 -4.375 11.625 C-4.89578125 12.5221875 -5.4165625 13.419375 -5.953125 14.34375 C-8.79716664 19.19188315 -8.79716664 19.19188315 -10 21 C-10.33 21 -10.66 21 -11 21 C-11.33 19.35 -11.66 17.7 -12 16 C-15.24849977 17.72226496 -15.24849977 17.72226496 -16 21 C-16.66 21 -17.32 21 -18 21 C-16.23570801 16.02790438 -13.6060834 11.56561939 -11 7 C-10 9 -10 9 -10 13 C-9.34 11.68 -8.68 10.36 -8 9 C-7.01 9 -6.02 9 -5 9 C-5.33 7.02 -5.66 5.04 -6 3 C-4.68 3.33 -3.36 3.66 -2 4 C-1.34 2.68 -0.68 1.36 0 0 Z " fill="#BC6F20" transform="translate(82,114)"/>
<path d="M0 0 C1.65 0.33 3.3 0.66 5 1 C6.3403676 7.33628319 6.3403676 7.33628319 4.75 10.4375 C3 12 3 12 0 12 C0 13.65 0 15.3 0 17 C-0.99 17 -1.98 17 -3 17 C-3.33 18.65 -3.66 20.3 -4 22 C-4.66 21.67 -5.32 21.34 -6 21 C-5.67 19.02 -5.34 17.04 -5 15 C-4.34 15 -3.68 15 -3 15 C-2.34 13.02 -1.68 11.04 -1 9 C-0.34 9 0.32 9 1 9 C0.67 6.03 0.34 3.06 0 0 Z " fill="#F3780F" transform="translate(77,106)"/>
<path d="M0 0 C1.32 0.33 2.64 0.66 4 1 C4 2.65 4 4.3 4 6 C4.598125 6.103125 5.19625 6.20625 5.8125 6.3125 C8.5017689 7.1576988 9.46031875 7.61349407 11 10 C11.25250174 12.71842295 11.13481379 15.25878635 11 18 C10.01 18 9.02 18 8 18 C8 16.68 8 15.36 8 14 C7.01 13.67 6.02 13.34 5 13 C3 10 3 10 3 6 C2.01 5.67 1.02 5.34 0 5 C0 3.35 0 1.7 0 0 Z " fill="#E87812" transform="translate(15,46)"/>
<path d="M0 0 C0.98120464 3.05263664 0.98120464 4.94736336 0 8 C0.66 8 1.32 8 2 8 C2.268125 7.236875 2.53625 6.47375 2.8125 5.6875 C3.94424112 3.12619116 4.91223401 1.80307062 7 0 C7 3 7 3 6 6 C7.20173774 8.34969072 7.20173774 8.34969072 8.9375 10.6875 C9.50339844 11.49574219 10.06929687 12.30398437 10.65234375 13.13671875 C11.09707031 13.75160156 11.54179687 14.36648437 12 15 C11.67 15.66 11.34 16.32 11 17 C9.68 16.34 8.36 15.68 7 15 C7 13.35 7 11.7 7 10 C6.01 10 5.02 10 4 10 C3.34 11.32 2.68 12.64 2 14 C-2.11417323 7.45472441 -2.11417323 7.45472441 -3 4 C-1.625 1.6875 -1.625 1.6875 0 0 Z " fill="#D2731B" transform="translate(12,37)"/>
<path d="M0 0 C3.87641915 4.32369829 10 11.95808443 10 18 C9.34 18 8.68 18 8 18 C6.61767557 16.37373596 5.28062485 14.7074998 4 13 C4.33 15.97 4.66 18.94 5 22 C1.77730382 18.20182235 -0.74520378 14.42608146 -3 10 C-2.67 9.34 -2.34 8.68 -2 8 C0.475 8.99 0.475 8.99 3 10 C2.2575 8.63875 2.2575 8.63875 1.5 7.25 C0 4 0 4 0 0 Z " fill="#B86E20" transform="translate(18,112)"/>
<path d="M0 0 C3.17763348 2.70098845 5.54015276 6.10442939 7 10 C6.75 13.9375 6.75 13.9375 6 17 C5.67 16.34 5.34 15.68 5 15 C4.34 15 3.68 15 3 15 C2.67 14.01 2.34 13.02 2 12 C1.319375 11.319375 0.63875 10.63875 -0.0625 9.9375 C-0.701875 9.298125 -1.34125 8.65875 -2 8 C-2 7.34 -2 6.68 -2 6 C-1.34 6 -0.68 6 0 6 C0 4.02 0 2.04 0 0 Z " fill="#C37522" transform="translate(71,18)"/>
<path d="M0 0 C1.32 0.33 2.64 0.66 4 1 C4 1.99 4 2.98 4 4 C4.99 4.33 5.98 4.66 7 5 C7 5.66 7 6.32 7 7 C16.57 7.33 26.14 7.66 36 8 C36 8.33 36 8.66 36 9 C31.78317252 9.21721322 27.56603409 9.41403398 23.34741211 9.59204102 C21.91258349 9.65545437 20.47798927 9.72442591 19.04370117 9.79907227 C16.98132213 9.90543934 14.91892477 9.99175714 12.85546875 10.07421875 C11.61434326 10.13182373 10.37321777 10.18942871 9.09448242 10.2487793 C6 10 6 10 4.0715332 8.62036133 C3 7 3 7 3 5 C2.34 5 1.68 5 1 5 C0.67 3.35 0.34 1.7 0 0 Z " fill="#F47208" transform="translate(86,98)"/>
<path d="M0 0 C3.55760404 -0.10482811 4.68186841 0.04539925 7.76611328 2.1015625 C8.96923828 4.16015625 8.96923828 4.16015625 10.01611328 6.5390625 C10.37189453 7.32152344 10.72767578 8.10398437 11.09423828 8.91015625 C11.76611328 11.1015625 11.76611328 11.1015625 10.76611328 14.1015625 C9.76077661 12.47985871 8.76199421 10.85409013 7.76611328 9.2265625 C7.20923828 8.32164063 6.65236328 7.41671875 6.07861328 6.484375 C4.76611328 4.1015625 4.76611328 4.1015625 4.76611328 2.1015625 C-5.46388672 2.1015625 -15.69388672 2.1015625 -26.23388672 2.1015625 C-26.23388672 1.7715625 -26.23388672 1.4415625 -26.23388672 1.1015625 C-22.37982335 0.93244967 -18.52562179 0.76671212 -14.67138672 0.6015625 C-13.58535156 0.55386719 -12.49931641 0.50617188 -11.38037109 0.45703125 C-7.58722818 0.29562091 -3.79261439 0.17242924 0 0 Z " fill="#826325" transform="translate(58.23388671875,82.8984375)"/>
<path d="M0 0 C0.33 0.66 0.66 1.32 1 2 C-0.24493748 4.28974316 -1.52641528 6.44190034 -2.9375 8.625 C-3.32357422 9.23601562 -3.70964844 9.84703125 -4.10742188 10.4765625 C-5.06446326 11.9889242 -6.03132811 13.49506117 -7 15 C-7.33 14.34 -7.66 13.68 -8 13 C-9.94074861 13.27617533 -9.94074861 13.27617533 -12 14 C-12.99 15.485 -12.99 15.485 -14 17 C-14.66 17 -15.32 17 -16 17 C-14.66654496 13.40992874 -13.1056769 10.20429093 -11 7 C-10.67 7 -10.34 7 -10 7 C-10 8.65 -10 10.3 -10 12 C-7.70628033 11.10921327 -7.70628033 11.10921327 -6.6875 8.25 C-4.89220238 4.79238977 -2.8520811 2.62083128 0 0 Z " fill="#B56D21" transform="translate(89,56)"/>
<path d="M0 0 C0.99 0.33 1.98 0.66 3 1 C3.37096774 6.56451613 3.37096774 6.56451613 1.5625 8.6875 C1.046875 9.120625 0.53125 9.55375 0 10 C-0.33 10.99 -0.66 11.98 -1 13 C-1.66 13 -2.32 13 -3 13 C-3.33 14.32 -3.66 15.64 -4 17 C-4.66 17 -5.32 17 -6 17 C-6.1875 14.6875 -6.1875 14.6875 -6 12 C-5.5359375 11.54625 -5.071875 11.0925 -4.59375 10.625 C-2.64576737 8.63882163 -2.11783739 6.95860857 -1.3125 4.3125 C-1.06113281 3.50425781 -0.80976563 2.69601563 -0.55078125 1.86328125 C-0.36902344 1.24839844 -0.18726563 0.63351563 0 0 Z " fill="#F27A10" transform="translate(18,96)"/>
<path d="M0 0 C4 4.75 4 4.75 4 7 C5.32 7.33 6.64 7.66 8 8 C8.33 9.98 8.66 11.96 9 14 C7 12.625 7 12.625 5 11 C5 10.34 5 9.68 5 9 C4.34 9 3.68 9 3 9 C2.67 9.99 2.34 10.98 2 12 C0.03810791 8.3321148 -1.39301257 5.12751449 -2 1 C-1.34 0.67 -0.68 0.34 0 0 Z " fill="#D77A1A" transform="translate(22,123)"/>
<path d="M0 0 C1.40253926 4.20761779 -0.09397469 6.11735584 -2 10 C-2.66 10.66 -3.32 11.32 -4 12 C-4.34490322 16.05261287 -4.30163882 17.54754176 -2 21 C-2.33 21.99 -2.66 22.98 -3 24 C-3.86941494 22.76055724 -4.72005457 21.50792941 -5.5625 20.25 C-6.03816406 19.55390625 -6.51382812 18.8578125 -7.00390625 18.140625 C-8 16 -8 16 -7.875 14.125 C-6.65501778 11.16218605 -5.08100606 8.4991374 -3.4375 5.75 C-2.79683594 4.67234375 -2.15617188 3.5946875 -1.49609375 2.484375 C-1.00238281 1.66453125 -0.50867188 0.8446875 0 0 Z " fill="#876123" transform="translate(17,96)"/>
<path d="M0 0 C0.66 0 1.32 0 2 0 C1.47731534 2.76276177 0.89130413 5.3260876 0 8 C-0.66 8 -1.32 8 -2 8 C-2.12375 9.134375 -2.2475 10.26875 -2.375 11.4375 C-2.58125 12.613125 -2.7875 13.78875 -3 15 C-3.99 15.495 -3.99 15.495 -5 16 C-5 15.01 -5 14.02 -5 13 C-5.66 13 -6.32 13 -7 13 C-6.1875 10.5625 -6.1875 10.5625 -5 8 C-4.01 7.67 -3.02 7.34 -2 7 C-1.855625 6.21625 -1.71125 5.4325 -1.5625 4.625 C-1 2 -1 2 0 0 Z " fill="#F4790B" transform="translate(75,50)"/>
<path d="M0 0 C3.33576209 2.99068325 5.3746531 5.80831589 7 10 C7 14.99693825 3.69783437 18.98809133 1 23 C0 20 0 20 1 17 C1.66 17 2.32 17 3 17 C3 16.01 3 15.02 3 14 C3.66 14 4.32 14 5 14 C4.745504 12.51793505 4.47088238 11.03931385 4.1875 9.5625 C3.96126953 8.32693359 3.96126953 8.32693359 3.73046875 7.06640625 C3.48941406 6.38449219 3.24835938 5.70257813 3 5 C2.01 4.67 1.02 4.34 0 4 C0 2.68 0 1.36 0 0 Z " fill="#9F6E28" transform="translate(139,66)"/>
<path d="M0 0 C10.89 0 21.78 0 33 0 C32.67 1.32 32.34 2.64 32 4 C31.47438477 3.67854004 30.94876953 3.35708008 30.40722656 3.02587891 C27.34051063 1.71894784 24.81471656 1.676765 21.484375 1.5859375 C20.23398438 1.54726563 18.98359375 1.50859375 17.6953125 1.46875 C16.39335938 1.4378125 15.09140625 1.406875 13.75 1.375 C12.43257812 1.33632813 11.11515625 1.29765625 9.7578125 1.2578125 C6.50534839 1.16353818 3.25289004 1.0779325 0 1 C0 0.67 0 0.34 0 0 Z " fill="#F96F02" transform="translate(94,47)"/>
<path d="M0 0 C9.24 0 18.48 0 28 0 C28.33 0.99 28.66 1.98 29 3 C27.1128125 2.7525 27.1128125 2.7525 25.1875 2.5 C16.82590662 1.64084931 8.39417649 1.92243574 0 2 C0 1.34 0 0.68 0 0 Z " fill="#F67101" transform="translate(37,12)"/>
<path d="M0 0 C0.83265381 0.00523682 1.66530762 0.01047363 2.52319336 0.01586914 C3.42231445 0.0190918 4.32143555 0.02231445 5.24780273 0.02563477 C6.66609375 0.03820312 6.66609375 0.03820312 8.11303711 0.05102539 C9.06243164 0.05553711 10.01182617 0.06004883 10.98999023 0.06469727 C13.34356776 0.07652429 15.69702188 0.09300514 18.05053711 0.11352539 C18.05053711 0.44352539 18.05053711 0.77352539 18.05053711 1.11352539 C7.65553711 2.10352539 7.65553711 2.10352539 -2.94946289 3.11352539 C-2.94946289 4.10352539 -2.94946289 5.09352539 -2.94946289 6.11352539 C-3.60946289 6.11352539 -4.26946289 6.11352539 -4.94946289 6.11352539 C-2.65763199 0.15476504 -2.65763199 0.15476504 0 0 Z " fill="#F77204" transform="translate(31.949462890625,79.886474609375)"/>
<path d="M0 0 C3.75757576 1.45454545 3.75757576 1.45454545 4.75 3.6875 C5.08664439 6.80146062 5.06017169 9.87107191 5 13 C4.01 13.495 4.01 13.495 3 14 C2.27840576 15.64363134 1.60648579 17.31050386 1 19 C0.34 19 -0.32 19 -1 19 C0.05875074 15.59687262 1.00902154 12.98646769 3 10 C2.6221171 6.41011248 1.41575447 3.30342709 0 0 Z " fill="#AA6E24" transform="translate(73,102)"/>
<path d="M0 0 C1.32 0.33 2.64 0.66 4 1 C4 2.32 4 3.64 4 5 C2.68 5 1.36 5 0 5 C0 6.65 0 8.3 0 10 C-0.99 10.495 -0.99 10.495 -2 11 C-2.94693195 7.2983569 -3.30443767 5.60887535 -1.5625 2.125 C-1.046875 1.42375 -0.53125 0.7225 0 0 Z " fill="#EC7811" transform="translate(24,86)"/>
<path d="M0 0 C0.66 0 1.32 0 2 0 C2 4 2 4 0.125 6 C-0.57625 6.66 -1.2775 7.32 -2 8 C-3.23512079 10.13309192 -3.23512079 10.13309192 -4 12 C-4.66 12 -5.32 12 -6 12 C-6 10.35 -6 8.7 -6 7 C-5.34 7 -4.68 7 -4 7 C-3.34 5.35 -2.68 3.7 -2 2 C-1.34 2 -0.68 2 0 2 C0 1.34 0 0.68 0 0 Z " fill="#F8760B" transform="translate(85,56)"/>
<path d="M0 0 C1.32 0 2.64 0 4 0 C3.34 1.65 2.68 3.3 2 5 C1.34 5 0.68 5 0 5 C-0.33 5.99 -0.66 6.98 -1 8 C-1.99 8.33 -2.98 8.66 -4 9 C-3.47679633 5.23293356 -2.72611199 2.72611199 0 0 Z " fill="#F5790E" transform="translate(77,69)"/>
<path d="M0 0 C1.32 0 2.64 0 4 0 C4 0.99 4 1.98 4 3 C4.66 3 5.32 3 6 3 C6.33 4.98 6.66 6.96 7 9 C6.01 9.33 5.02 9.66 4 10 C1.125 3.375 1.125 3.375 0 0 Z " fill="#F17710" transform="translate(68,88)"/>
<path d="M0 0 C1.65 0 3.3 0 5 0 C5.66 1.32 6.32 2.64 7 4 C6.01 4.99 5.02 5.98 4 7 C4 5.68 4 4.36 4 3 C2.01508358 3.26676204 2.01508358 3.26676204 0 4 C-0.33 4.99 -0.66 5.98 -1 7 C-1.99 6.67 -2.98 6.34 -4 6 C-3.34 5.67 -2.68 5.34 -2 5 C-1.27840576 3.35636866 -0.60648579 1.68949614 0 0 Z " fill="#BE701D" transform="translate(65,63)"/>
<path d="M0 0 C1.32 0 2.64 0 4 0 C4.1875 2.375 4.1875 2.375 4 5 C3.01 5.66 2.02 6.32 1 7 C-0.32 6.01 -1.64 5.02 -3 4 C-2.34 4 -1.68 4 -1 4 C-0.67 2.68 -0.34 1.36 0 0 Z " fill="#EC7814" transform="translate(65,66)"/>
<path d="M0 0 C0 3.72207387 -1.17964568 5.46395589 -3 8.6875 C-3.8353125 10.17830078 -3.8353125 10.17830078 -4.6875 11.69921875 C-5.3371875 12.83810547 -5.3371875 12.83810547 -6 14 C-7.04449911 10.86650268 -6.93423645 10.01031744 -6 7 C-5.34 7 -4.68 7 -4 7 C-3.896875 6.401875 -3.79375 5.80375 -3.6875 5.1875 C-2.91123545 2.71756736 -1.92911079 1.67748765 0 0 Z " fill="#B07025" transform="translate(79,51)"/>
<path d="M0 0 C0.98120464 3.05263664 0.98120464 4.94736336 0 8 C0.66 8 1.32 8 2 8 C2.33 9.98 2.66 11.96 3 14 C-0.59284592 11.60476939 -1.24038162 9.91494926 -2.63671875 5.9765625 C-3 4 -3 4 -1.6875 1.5 C-1.130625 1.005 -0.57375 0.51 0 0 Z " fill="#A06A27" transform="translate(12,37)"/>
<path d="M0 0 C-0.55728913 3.34373475 -1.35173889 6.03312999 -3 9 C-3.66 9 -4.32 9 -5 9 C-4.4140625 2.84765625 -4.4140625 2.84765625 -4 1 C-2 0 -2 0 0 0 Z " fill="#F3780C" transform="translate(17,36)"/>
<path d="M0 0 C0.66 1.32 1.32 2.64 2 4 C2.99 5.485 2.99 5.485 4 7 C4 7.99 4 8.98 4 10 C2.35 9.67 0.7 9.34 -1 9 C-0.67 6.03 -0.34 3.06 0 0 Z " fill="#EF780E" transform="translate(17,112)"/>
<path d="M0 0 C0.33 0.66 0.66 1.32 1 2 C0.00390625 4.1640625 0.00390625 4.1640625 -1.4375 6.625 C-1.91058594 7.44226563 -2.38367188 8.25953125 -2.87109375 9.1015625 C-3.24363281 9.72804688 -3.61617188 10.35453125 -4 11 C-4.33 11 -4.66 11 -5 11 C-5.33 8.36 -5.66 5.72 -6 3 C-4.68 3.33 -3.36 3.66 -2 4 C-1.34 2.68 -0.68 1.36 0 0 Z " fill="#AC651D" transform="translate(82,114)"/>
<path d="M0 0 C3.2910841 3.60957611 4.54663921 6.12637153 5 11 C4.34 10.67 3.68 10.34 3 10 C3 9.01 3 8.02 3 7 C1.68 6.67 0.36 6.34 -1 6 C-0.67 4.02 -0.34 2.04 0 0 Z " fill="#C67422" transform="translate(26,58)"/>
<path d="M0 0 C2.40575607 2.18517099 3.79535581 4.25919671 5.1875 7.1875 C5.53167969 7.90292969 5.87585938 8.61835937 6.23046875 9.35546875 C6.48441406 9.89816406 6.73835938 10.44085938 7 11 C6.01 11.495 6.01 11.495 5 12 C5 11.01 5 10.02 5 9 C4.34 9 3.68 9 3 9 C3 8.34 3 7.68 3 7 C2.34 7 1.68 7 1 7 C0.67 4.69 0.34 2.38 0 0 Z " fill="#A86C20" transform="translate(85,90)"/>
<path d="M0 0 C2.53833449 1.26916725 2.89400901 2.41624809 4.125 4.9375 C4.47820312 5.64777344 4.83140625 6.35804687 5.1953125 7.08984375 C6 9 6 9 6 11 C5.34 11 4.68 11 4 11 C1.63496961 8.00893216 0.08446819 5.97138418 -0.25 2.125 C-0.1675 1.42375 -0.085 0.7225 0 0 Z " fill="#996622" transform="translate(79,79)"/>
<path d="M0 0 C1 3 1 3 -0.25 6.5625 C-2 10 -2 10 -5 12 C-4.42365861 7.24518354 -2.44931479 4.02951788 0 0 Z " fill="#AB7124" transform="translate(17,96)"/>
<path d="M0 0 C2.91488977 2.6234008 4.88503898 5.71816394 7 9 C6.67 9.66 6.34 10.32 6 11 C4.68 10.34 3.36 9.68 2 9 C2 7.35 2 5.7 2 4 C1.34 4 0.68 4 0 4 C0 2.68 0 1.36 0 0 Z " fill="#B17224" transform="translate(17,43)"/>
<path d="M0 0 C1.9375 0.5625 1.9375 0.5625 4 2 C4.75 5.625 4.75 5.625 5 9 C4.67 8.34 4.34 7.68 4 7 C3.34 7 2.68 7 2 7 C1.34 4.69 0.68 2.38 0 0 Z " fill="#F77407" transform="translate(72,26)"/>
<path d="M0 0 C1.32 0.33 2.64 0.66 4 1 C4 1.99 4 2.98 4 4 C6.475 4.99 6.475 4.99 9 6 C7.3125 6.8125 7.3125 6.8125 5 7 C2.25 4.6875 2.25 4.6875 0 2 C0 1.34 0 0.68 0 0 Z " fill="#CD701C" transform="translate(23,134)"/>
<path d="M0 0 C0.66 0.33 1.32 0.66 2 1 C2.36923077 8.50769231 2.36923077 8.50769231 0.5 11 C0.005 11.33 -0.49 11.66 -1 12 C-1.08226668 8.95613276 -0.97608217 6.92824652 0 4 C0 2.68 0 1.36 0 0 Z " fill="#D4761F" transform="translate(81,39)"/>
<path d="M0 0 C0.33 0 0.66 0 1 0 C1.25 2.25 1.25 2.25 1 5 C-1 7.3125 -1 7.3125 -3 9 C-3.33 8.01 -3.66 7.02 -4 6 C-3.34 6 -2.68 6 -2 6 C-1.855625 5.195625 -1.71125 4.39125 -1.5625 3.5625 C-1 1 -1 1 0 0 Z " fill="#CD791F" transform="translate(138,86)"/>
<path d="M0 0 C2.43542455 1.90598443 3.00158196 3.00596275 3.8125 6.0625 C3.874375 7.031875 3.93625 8.00125 4 9 C3.34 9.66 2.68 10.32 2 11 C0.80712589 7.12315913 0 4.08378077 0 0 Z " fill="#986B2A" transform="translate(81,35)"/>
<path d="M0 0 C1.60031344 3.20062687 0.03173691 5.72271806 -1 9 C-1.99 9 -2.98 9 -4 9 C-2.25 2.25 -2.25 2.25 0 0 Z " fill="#AC6D21" transform="translate(130,91)"/>
<path d="M0 0 C0 3.86695678 -1.41909971 6.5088452 -3 10 C-3.66 10 -4.32 10 -5 10 C-3.84414715 6.08788267 -2.64465038 3.1254959 0 0 Z " fill="#A67221" transform="translate(136,81)"/>
<path d="M0 0 C3.0916909 2.52956528 3.90931332 5.22454612 5 9 C2 8 2 8 0.8125 6.1875 C0 4 0 4 0 0 Z " fill="#9A6B29" transform="translate(129,48)"/>
<path d="M0 0 C1 3 1 3 0.25 5.625 C-1 8 -1 8 -4 9 C-2.94124926 5.59687262 -1.99097846 2.98646769 0 0 Z " fill="#AD6E28" transform="translate(17,28)"/>
<path d="M0 0 C0.99 1.32 1.98 2.64 3 4 C2.01 5.32 1.02 6.64 0 8 C-0.66 5.69 -1.32 3.38 -2 1 C-1.34 0.67 -0.68 0.34 0 0 Z " fill="#F3760D" transform="translate(22,123)"/>
<path d="M0 0 C4.42857143 5.14285714 4.42857143 5.14285714 5 9 C4.34 9 3.68 9 3 9 C0.56839395 5.63316085 0 4.26649636 0 0 Z " fill="#996826" transform="translate(18,112)"/>
<path d="M0 0 C0.6875 1.6875 0.6875 1.6875 1 4 C-0.3125 6.75 -0.3125 6.75 -2 9 C-2.66 9 -3.32 9 -4 9 C-2.94124926 5.59687262 -1.99097846 2.98646769 0 0 Z " fill="#AE6C22" transform="translate(83,54)"/>
<path d="M0 0 C0.33 0 0.66 0 1 0 C1 1.98 1 3.96 1 6 C-0.32 6.33 -1.64 6.66 -3 7 C-2.38722388 4.03824877 -1.74627478 2.61941217 0 0 Z " fill="#F1750C" transform="translate(70,129)"/>
<path d="M0 0 C1.32 0 2.64 0 4 0 C4 2.64 4 5.28 4 8 C3.01 8.495 3.01 8.495 2 9 C1.855625 7.88625 1.71125 6.7725 1.5625 5.625 C1.21627965 2.17857953 1.21627965 2.17857953 0 0 Z " fill="#AF7322" transform="translate(135,72)"/>
<path d="M0 0 C0.99 0.33 1.98 0.66 3 1 C2.34 3.97 1.68 6.94 1 10 C0.34 10 -0.32 10 -1 10 C-1.02689216 8.52093108 -1.04634621 7.04172517 -1.0625 5.5625 C-1.07410156 4.73878906 -1.08570312 3.91507813 -1.09765625 3.06640625 C-1 1 -1 1 0 0 Z " fill="#ED7917" transform="translate(78,36)"/>
<path d="M0 0 C3.875 1.75 3.875 1.75 5 4 C5.039992 5.99960012 5.04346799 8.00047242 5 10 C4.731875 9.4225 4.46375 8.845 4.1875 8.25 C3.04946754 5.94252104 3.04946754 5.94252104 1.375 3.875 C0 2 0 2 0 0 Z " fill="#A56E26" transform="translate(73,34)"/>
<path d="M0 0 C0.66 0.33 1.32 0.66 2 1 C0.68 3.31 -0.64 5.62 -2 8 C-2.93423645 4.98968256 -3.04449911 4.13349732 -2 1 C-1.34 0.67 -0.68 0.34 0 0 Z " fill="#AD6822" transform="translate(23,29)"/>
</svg>
